<svg width="32" height="33" viewBox="0 0 32 33" fill="none" xmlns="http://www.w3.org/2000/svg">
<path fill-rule="evenodd" clip-rule="evenodd" d="M31.1325 0.179472L31.0967 8.46514C31.0967 8.48871 31.092 8.51204 31.083 8.53382C31.074 8.55559 31.0608 8.57538 31.0441 8.59205C31.0274 8.60871 31.0076 8.62193 30.9859 8.63095C30.9641 8.63997 30.9408 8.64461 30.9172 8.64461L22.8947 8.59675C22.8471 8.59675 22.8015 8.57784 22.7678 8.54418C22.7342 8.51053 22.7153 8.46488 22.7153 8.41728L22.7213 0.191438C22.7213 0.143838 22.7402 0.0981891 22.7738 0.0645314C22.8075 0.0308737 22.8531 0.0119651 22.9007 0.0119651L30.9531 0C31.0007 0 31.0463 0.0189086 31.08 0.0525663C31.1136 0.086224 31.1325 0.131873 31.1325 0.179472ZM20.2703 23.331L22.3563 23.2776C22.5757 23.2696 22.6953 23.156 22.7153 22.9366L22.9247 20.8667C22.9526 20.5636 22.815 20.408 22.5119 20.4001L21.106 20.3701C21.108 20.3522 21.111 20.3348 21.115 20.3179C21.111 20.3348 21.108 20.3522 21.106 20.3702L5.9525 20.3462L0.299121 20.2266C0.0997071 20.2226 0 20.1229 0 19.9275L0.00598371 0.466611C0.00598371 0.239279 0.11965 0.125613 0.346982 0.125613L9.10525 0.113647H9.10526L19.4548 0.167489C19.6582 0.167489 19.7619 0.271185 19.7659 0.478576L19.8138 8.2677C19.8138 8.3177 19.804 8.36721 19.785 8.41333C19.766 8.45945 19.7381 8.50127 19.703 8.53635C19.6679 8.57142 19.6263 8.59906 19.5807 8.61764C19.535 8.63623 19.4861 8.64539 19.4369 8.64459L8.82407 8.5728C8.53293 8.5728 8.38735 8.71838 8.38735 9.00952V11.1034C8.38735 11.4862 8.57879 11.6777 8.96166 11.6777L18.9822 11.6478C19.2306 11.6458 19.4766 11.6995 19.7022 11.8051C19.9278 11.9107 20.1274 12.0654 20.2864 12.258L22.5537 15.0219L22.811 11.9768C22.827 11.7774 22.9346 11.6777 23.1341 11.6777L30.7078 11.6537C30.8141 11.6537 30.9161 11.6966 30.9912 11.7729C31.0664 11.8492 31.1086 11.9527 31.1086 12.0605L31.1027 31.7188C31.1027 31.8584 31.0349 31.9282 30.8993 31.9282L17.3389 31.995C17.3345 32.0314 17.3304 32.0681 17.3265 32.105L16.3323 32L16.3321 32L16.332 32L16.3317 31.9999L11.6538 31.8863C11.575 31.8832 11.5004 31.8497 11.4457 31.7928C11.3911 31.7359 11.3606 31.6601 11.3607 31.5812L11.3666 23.6963C11.3666 23.4571 11.4863 23.3374 11.7256 23.3374L19.084 23.3613L19.8111 22.6749C19.9914 22.8658 20.1529 23.0853 20.2703 23.331ZM21.5068 19.2275C21.4271 19.2674 21.3807 19.3108 21.3677 19.3576C21.3548 19.4045 21.3752 19.4548 21.429 19.5087C21.4353 19.515 21.4414 19.5212 21.4473 19.5275L21.3453 20.0411C21.362 20.0321 21.3778 20.023 21.3926 20.0138C21.5112 19.9399 21.57 19.8576 21.5691 19.7667C21.5683 19.6926 21.5277 19.6129 21.4473 19.5275L21.5068 19.2275ZM7.78912 27.3277L0.508508 23.5588C0.455776 23.531 0.396789 23.5173 0.337231 23.519C0.277672 23.5207 0.219548 23.5377 0.168457 23.5683C0.117365 23.599 0.0750279 23.6423 0.0455236 23.694C0.0160194 23.7458 0.000340802 23.8043 0 23.8639L0.0418791 31.4855C0.0422199 31.5451 0.0578962 31.6035 0.0874005 31.6553C0.116905 31.7071 0.159242 31.7504 0.210333 31.781C0.261425 31.8117 0.319549 31.8287 0.379107 31.8303C0.438666 31.832 0.497653 31.8183 0.550385 31.7906L7.78912 27.9439C7.84559 27.9146 7.89293 27.8704 7.92598 27.8161C7.95902 27.7617 7.9765 27.6994 7.9765 27.6358C7.9765 27.5722 7.95902 27.5098 7.92598 27.4555C7.89293 27.4011 7.84559 27.3569 7.78912 27.3277Z" fill="#252525"/>
</svg>
