<svg width="33" height="32" viewBox="0 0 33 32" fill="none" xmlns="http://www.w3.org/2000/svg">
<path d="M22.2308 20.9251L20.9187 19.5699C20.9143 19.5654 20.909 19.5618 20.9031 19.5595C20.8973 19.5571 20.891 19.5561 20.8846 19.5563C20.8783 19.5566 20.8721 19.5582 20.8665 19.561C20.8608 19.5638 20.8558 19.5678 20.8518 19.5727C19.8414 20.804 18.5789 21.6604 17.0064 21.963" stroke="#2D6C6B" stroke-width="2"/>
<path d="M17.0064 21.9629C16.5003 21.7942 16.1678 21.6705 16.0089 21.5916C13.4801 20.3401 12.4477 17.826 12.8117 15.0808C13.055 13.2459 13.9829 11.8623 15.5954 10.9301C16.0923 10.6428 16.644 10.4182 17.2503 10.2562" stroke="#9ADBBA" stroke-width="2"/>
<path d="M17.2502 10.2562C17.9329 10.3883 18.59 10.6511 19.2214 11.0447C19.9287 11.4861 20.5344 12.0282 21.0387 12.6713C21.0432 12.677 21.0489 12.6816 21.0554 12.6849C21.0619 12.6881 21.0691 12.6899 21.0763 12.69C21.0836 12.6902 21.0908 12.6888 21.0974 12.6859C21.1041 12.6829 21.11 12.6786 21.1148 12.6731L22.3618 11.2584" stroke="#2D6C6B" stroke-width="2"/>
<path d="M17.2501 10.2562C15.0771 9.83536 12.9545 10.4047 11.4261 12.0166C10.0251 13.4955 9.71883 15.6456 10.103 17.5784C10.3903 19.0228 11.1333 20.1833 12.3319 21.0598C13.6935 22.0546 15.3668 22.2948 17.0062 21.9629" stroke="#9391B0" stroke-width="2"/>
<path d="M31.9991 3.00186L32.0174 28.9945C32.0177 29.3891 31.9401 29.7799 31.7893 30.1445C31.6385 30.5091 31.4173 30.8405 31.1383 31.1196C30.8594 31.3987 30.5282 31.6201 30.1636 31.7712C29.7991 31.9222 29.4083 32 29.0137 32H3.0037C2.60909 32 2.21835 31.9222 1.85381 31.7712C1.48927 31.6201 1.15806 31.3987 0.879114 31.1196C0.600171 30.8405 0.37896 30.5091 0.228118 30.1445C0.0772759 29.7799 -0.000240347 29.3891 5.59799e-07 28.9945L0.0174215 3.00186C0.0179076 2.20555 0.334583 1.44202 0.897833 0.879114C1.46108 0.316208 2.22481 -1.48397e-07 3.02112 0H28.9954C29.7917 -1.48397e-07 30.5554 0.316208 31.1187 0.879114C31.6819 1.44202 31.9986 2.20555 31.9991 3.00186ZM17.1979 26.1402C17.7969 26.2093 18.3917 26.2334 18.9821 26.2127C21.9574 26.1091 24.5733 24.6833 26.4786 22.4562C26.4823 22.452 26.4843 22.4465 26.4841 22.4409C26.484 22.4353 26.4816 22.4299 26.4776 22.4259L23.6977 19.5644C23.6942 19.5608 23.69 19.5581 23.6854 19.5563C23.6808 19.5545 23.6759 19.5537 23.6709 19.5539C23.666 19.5542 23.6611 19.5555 23.6567 19.5578C23.6523 19.56 23.6485 19.5632 23.6454 19.5671C23.2383 20.0726 22.7667 20.5253 22.2307 20.925L20.9186 19.5699C20.9142 19.5653 20.9089 19.5618 20.903 19.5594C20.8971 19.5571 20.8908 19.556 20.8845 19.5563C20.8782 19.5565 20.872 19.5581 20.8663 19.5609C20.8607 19.5638 20.8557 19.5677 20.8517 19.5726C19.8413 20.804 18.5787 21.6604 17.0063 21.9629C16.5002 21.7942 16.1676 21.6704 16.0087 21.5916C13.48 20.34 12.4476 17.826 12.8116 15.0808C13.0548 13.2458 13.9827 11.8623 15.5952 10.9301C16.0921 10.6428 16.6438 10.4182 17.2502 10.2562C17.9329 10.3882 18.59 10.6511 19.2215 11.0447C19.9287 11.4861 20.5344 12.0282 21.0387 12.6713C21.0432 12.677 21.0489 12.6816 21.0554 12.6848C21.0619 12.6881 21.0691 12.6899 21.0763 12.69C21.0836 12.6902 21.0908 12.6888 21.0975 12.6859C21.1041 12.6829 21.11 12.6786 21.1148 12.6731L22.3618 11.2584C22.9082 11.6716 23.4021 12.1407 23.8434 12.6658C23.8648 12.6908 23.8865 12.6908 23.9085 12.6658L26.5721 9.64465C26.5811 9.63457 26.5861 9.62151 26.5861 9.60798C26.5861 9.59445 26.5811 9.58139 26.5721 9.5713C24.3661 7.06517 21.5681 5.84755 18.178 5.91846C17.8272 5.92579 17.5206 5.95727 17.2584 6.01289C13.259 5.50678 9.56213 6.95453 7.20392 10.2379C6.23814 11.5814 5.66448 13.1309 5.48294 14.8865C5.24547 17.175 5.63239 19.5717 6.87018 21.5265C7.81762 23.0228 9.06855 24.1873 10.623 25.0198C12.6089 26.0852 14.9818 26.3795 17.1979 26.1402Z" fill="#191818"/>
<path d="M17.2584 6.01301C19.8496 6.35868 22.0574 7.61755 23.7756 9.554C23.7883 9.56812 23.7952 9.5864 23.7952 9.60535C23.7952 9.62429 23.7883 9.64257 23.7756 9.65669L22.3618 11.2585L21.1148 12.6732C21.1101 12.6787 21.1041 12.683 21.0975 12.686C21.0908 12.6889 21.0836 12.6903 21.0764 12.6901C21.0691 12.69 21.062 12.6882 21.0555 12.685C21.049 12.6817 21.0433 12.6771 21.0387 12.6714C20.5345 12.0284 19.9287 11.4862 19.2215 11.0448C18.5901 10.6512 17.933 10.3884 17.2502 10.2563C15.0772 9.83548 12.9546 10.4049 11.4262 12.0167C10.0252 13.4957 9.71895 15.6457 10.1031 17.5785C10.3904 19.0229 11.1334 20.1834 12.3321 21.0599C13.6936 22.0547 15.3669 22.295 17.0063 21.963C18.5788 21.6605 19.8413 20.8041 20.8517 19.5727C20.8557 19.5679 20.8607 19.5639 20.8664 19.5611C20.872 19.5582 20.8782 19.5567 20.8845 19.5564C20.8909 19.5561 20.8972 19.5572 20.903 19.5596C20.9089 19.5619 20.9142 19.5655 20.9186 19.57L22.2307 20.9251L23.6803 22.4197C23.6873 22.4268 23.6913 22.4365 23.6915 22.4465C23.6916 22.4566 23.688 22.4663 23.6812 22.4737C22.183 24.1562 20.3823 25.3968 18.1882 25.945C18.0464 25.9805 17.7163 26.0456 17.1979 26.1403C14.9818 26.3797 12.609 26.0853 10.623 25.0199C9.06858 24.1874 7.81765 23.023 6.87021 21.5266C5.63242 19.5718 5.2455 17.1751 5.48297 14.8866C5.66451 13.1311 6.23817 11.5815 7.20395 10.238C9.56217 6.95465 13.259 5.5069 17.2584 6.01301Z" fill="#B1B1B1"/>
<path d="M22.3618 11.2584L23.7756 9.65657C23.7883 9.64245 23.7952 9.62417 23.7952 9.60522C23.7952 9.58628 23.7883 9.568 23.7756 9.55388C22.0574 7.61743 19.8496 6.35856 17.2585 6.01289C17.5207 5.95727 17.8272 5.92579 18.1781 5.91845C21.5681 5.84755 24.3661 7.06516 26.5721 9.5713C26.5811 9.58139 26.5861 9.59444 26.5861 9.60798C26.5861 9.62151 26.5811 9.63456 26.5721 9.64465L23.9086 12.6658C23.8866 12.6908 23.8649 12.6908 23.8435 12.6658C23.4022 12.1407 22.9083 11.6716 22.3618 11.2584Z" fill="white"/>
<path d="M17.2501 10.2562C16.6437 10.4182 16.0921 10.6428 15.5951 10.9301C13.9826 11.8623 13.0547 13.2458 12.8115 15.0808C12.4475 17.826 13.4799 20.34 16.0086 21.5916C16.1676 21.6704 16.5001 21.7942 17.0062 21.9629C15.3668 22.2948 13.6935 22.0546 12.3319 21.0598C11.1333 20.1833 10.3903 19.0228 10.103 17.5784C9.71883 15.6456 10.0251 13.4955 11.4261 12.0166C12.9545 10.4047 15.0771 9.83536 17.2501 10.2562Z" fill="white"/>
<path d="M17.1979 26.1403C17.7162 26.0456 18.0463 25.9805 18.1881 25.945C20.3822 25.3967 22.183 24.1562 23.6812 22.4737C23.6879 22.4663 23.6916 22.4565 23.6914 22.4465C23.6913 22.4364 23.6873 22.4268 23.6802 22.4196L22.2307 20.9251C22.7667 20.5253 23.2383 20.0727 23.6454 19.5672C23.6485 19.5633 23.6523 19.5601 23.6567 19.5579C23.6611 19.5556 23.666 19.5543 23.6709 19.554C23.6759 19.5537 23.6808 19.5545 23.6854 19.5563C23.69 19.5581 23.6942 19.5609 23.6977 19.5644L26.4776 22.426C26.4816 22.43 26.484 22.4353 26.4841 22.441C26.4843 22.4466 26.4823 22.4521 26.4786 22.4563C24.5733 24.6834 21.9574 26.1091 18.9822 26.2127C18.3917 26.2335 17.7969 26.2094 17.1979 26.1403Z" fill="white"/>
</svg>
