<svg width="35" height="32" viewBox="0 0 35 32" fill="none" xmlns="http://www.w3.org/2000/svg">
<path d="M34.7826 15.9697C34.79 20.2131 32.9648 24.286 29.7085 27.2922C26.4523 30.2985 22.0317 31.9919 17.4193 32C15.1354 32.004 12.8732 31.5941 10.7618 30.7937C8.65035 29.9933 6.73109 28.8181 5.11356 27.3352C3.49603 25.8522 2.21192 24.0907 1.33453 22.151C0.457151 20.2113 0.00368457 18.1315 2.24749e-05 16.0303C-0.00738754 11.7869 1.81779 7.71405 5.07404 4.70778C8.33029 1.70151 12.7509 0.00808462 17.3633 2.89258e-05C19.6472 -0.00396626 21.9094 0.405933 24.0208 1.20632C26.1322 2.00671 28.0515 3.18192 29.669 4.66483C31.2866 6.14775 32.5707 7.90934 33.4481 9.84903C34.3254 11.7887 34.7789 13.8685 34.7826 15.9697ZM9.97595 19.4635C9.4725 19.1906 9.04454 18.7972 8.7304 18.3184C8.41626 17.8396 8.22574 17.2904 8.17588 16.72C8.12602 16.1495 8.21838 15.5756 8.4447 15.0496C8.67101 14.5236 9.02423 14.0619 9.47271 13.7058C11.6929 11.9297 13.7009 12.206 15.4968 14.5347C15.6381 14.717 15.8211 14.8621 16.03 14.9575C16.2389 15.0529 16.4674 15.0958 16.6956 15.0823L20.2775 14.8603C20.8498 14.8307 21.062 14.5396 20.914 13.9871C18.9454 6.55691 8.08141 6.18689 4.30714 12.2405C-2.76778 23.5486 18.679 30.8899 21.062 17.5689C21.0815 17.4664 21.0783 17.3608 21.0524 17.2596C21.0265 17.1585 20.9787 17.0643 20.9123 16.9837C20.8458 16.9032 20.7625 16.8383 20.6681 16.7936C20.5738 16.7489 20.4707 16.7256 20.3663 16.7253L16.9917 16.6957C16.449 16.6957 16.0641 16.9423 15.8372 17.4357C14.5544 20.2282 12.6007 20.9041 9.97595 19.4635ZM13.5726 16.37C13.5726 16.1776 13.5347 15.9871 13.4611 15.8093C13.3874 15.6315 13.2795 15.47 13.1434 15.3339C13.0074 15.1978 12.8458 15.0899 12.6681 15.0163C12.4903 14.9426 12.2997 14.9047 12.1073 14.9047C11.9149 14.9047 11.7243 14.9426 11.5466 15.0163C11.3688 15.0899 11.2072 15.1978 11.0712 15.3339C10.9351 15.47 10.8272 15.6315 10.7535 15.8093C10.6799 15.9871 10.642 16.1776 10.642 16.37C10.642 16.7587 10.7964 17.1314 11.0712 17.4062C11.346 17.681 11.7187 17.8353 12.1073 17.8353C12.4959 17.8353 12.8686 17.681 13.1434 17.4062C13.4182 17.1314 13.5726 16.7587 13.5726 16.37Z" fill="#191818"/>
<path d="M9.976 19.4635C12.6007 20.9041 14.5545 20.2282 15.8372 17.4358C16.0642 16.9424 16.449 16.6957 16.9917 16.6957L20.3664 16.7253C20.4708 16.7256 20.5738 16.749 20.6682 16.7936C20.7625 16.8383 20.8459 16.9032 20.9123 16.9838C20.9787 17.0643 21.0266 17.1585 21.0524 17.2597C21.0783 17.3608 21.0816 17.4664 21.062 17.569C18.679 30.8899 -2.76773 23.5486 4.30718 12.2406C8.08146 6.18694 18.9455 6.55697 20.914 13.9871C21.062 14.5397 20.8499 14.8308 20.2775 14.8604L16.6957 15.0824C16.4674 15.0958 16.239 15.053 16.0301 14.9576C15.8212 14.8621 15.6381 14.717 15.4968 14.5347C13.7009 12.206 11.6929 11.9298 9.47276 13.7059C9.02427 14.0619 8.67106 14.5236 8.44474 15.0496C8.21843 15.5757 8.12606 16.1496 8.17592 16.72C8.22578 17.2905 8.41631 17.8397 8.73045 18.3185C9.04459 18.7973 9.47254 19.1907 9.976 19.4635Z" fill="white"/>
<path d="M12.1073 17.8353C12.9165 17.8353 13.5726 17.1792 13.5726 16.37C13.5726 15.5607 12.9165 14.9047 12.1073 14.9047C11.298 14.9047 10.642 15.5607 10.642 16.37C10.642 17.1792 11.298 17.8353 12.1073 17.8353Z" fill="white"/>
</svg>
