<svg width="22" height="32" viewBox="0 0 22 32" fill="none" xmlns="http://www.w3.org/2000/svg">
<path d="M10.9537 5.68528L10.5025 6.43725C10.4802 6.4752 10.4485 6.50683 10.4106 6.52915L5.50607 9.35321C5.46573 9.37551 5.43207 9.40818 5.40857 9.44784C5.38507 9.4875 5.37258 9.5327 5.37239 9.5788L5.40581 15.6948C5.406 15.7409 5.4185 15.7861 5.442 15.8258C5.4655 15.8654 5.49915 15.8981 5.53949 15.9204L10.7698 18.8614C10.8102 18.8837 10.8438 18.9164 10.8673 18.956C10.8908 18.9957 10.9033 19.0409 10.9035 19.087L10.9453 24.7435C10.946 24.7897 10.9343 24.8352 10.9114 24.8754C10.8886 24.9155 10.8554 24.9488 10.8153 24.9718C10.7753 24.9948 10.7298 25.0067 10.6836 25.0062C10.6374 25.0057 10.5922 24.9929 10.5526 24.9691L0.133683 19.0369C0.0933417 19.0146 0.0596835 18.9819 0.0361833 18.9423C0.0126831 18.9026 0.00019252 18.8574 0 18.8113L0.0334215 6.45396C0.0327698 6.40868 0.0439985 6.36403 0.0659889 6.32444C0.0879793 6.28486 0.119963 6.25173 0.158749 6.22837L10.7364 0.0371666C10.7768 0.0128508 10.823 0 10.8701 0C10.9172 0 10.9634 0.0128508 11.0038 0.0371666L21.4478 6.09468C21.4874 6.11797 21.52 6.15136 21.5425 6.19143C21.5649 6.23149 21.5763 6.27681 21.5754 6.32271C21.5746 6.36862 21.5615 6.41348 21.5376 6.45269C21.5137 6.49191 21.4798 6.52406 21.4394 6.54586L17.4624 8.76834C17.424 8.78956 17.3809 8.80069 17.337 8.80069C17.2932 8.80069 17.2501 8.78956 17.2117 8.76834L11.2962 5.58502C11.2372 5.55461 11.1687 5.54806 11.1049 5.56672C11.0412 5.58538 10.987 5.62783 10.9537 5.68528Z" fill="#191818"/>
<path d="M10.9871 26.4563C11.1877 25.9494 11.5247 25.5706 11.9981 25.32C13.4129 24.5569 14.8055 23.7436 16.1757 22.8803C16.4598 22.702 16.6018 22.4458 16.6018 22.1116L16.5684 16.8979C16.5657 16.7151 16.5155 16.5367 16.423 16.3811C16.3305 16.2256 16.1991 16.0983 16.042 16.0123L11.6388 13.606C11.4511 13.5017 11.2948 13.3498 11.186 13.1662C11.0773 12.9825 11.0202 12.7737 11.0206 12.5616L11.0373 7.94954C11.0373 7.37024 11.2907 7.22541 11.7976 7.51506L21.3726 12.9961C21.6623 13.1632 21.8071 13.411 21.8071 13.7397L21.7988 25.3283C21.7986 25.4761 21.7599 25.621 21.6865 25.7486C21.6132 25.8762 21.5079 25.9819 21.381 26.0552L11.3297 31.8872C11.0679 32.0376 10.8061 32.0376 10.5443 31.8872L0.309199 25.9633C0.288304 25.9518 0.270887 25.9348 0.258759 25.9143C0.246631 25.8937 0.240234 25.8702 0.240234 25.8464C0.240234 25.8225 0.246631 25.799 0.258759 25.7785C0.270887 25.7579 0.288304 25.7409 0.309199 25.7294L4.27792 23.5069C4.42831 23.4234 4.5787 23.4234 4.7291 23.5069L10.5025 26.6318C10.5453 26.6553 10.5925 26.6695 10.6412 26.6733C10.6898 26.6771 10.7387 26.6705 10.7846 26.6539C10.8305 26.6373 10.8723 26.6111 10.9072 26.577C10.9422 26.5429 10.9694 26.5018 10.9871 26.4563Z" fill="#191818"/>
</svg>
