<svg class="fill-indigo-600 md:fill-indigo-700" width="31" height="32" viewBox="0 0 31 32" fill="none" xmlns="http://www.w3.org/2000/svg">
<path d="M26.1046 18.0739L17.0444 0.930034C16.9841 0.822997 16.9568 0.700549 16.9658 0.578041C16.9748 0.455532 17.0198 0.338416 17.0951 0.241373C17.1704 0.14433 17.2727 0.0716811 17.3892 0.032532C17.5056 -0.00661705 17.631 -0.0105221 17.7496 0.0213046C25.336 1.85685 29.4682 6.64465 30.1464 14.3847C30.7612 21.4647 27.9944 26.8266 21.8457 30.4706C21.6773 30.5716 21.4885 30.6335 21.2928 30.652C21.0971 30.6706 20.8995 30.6452 20.714 30.5778C20.5286 30.5103 20.36 30.4025 20.2203 30.262C20.0806 30.1216 19.9733 29.9519 19.9062 29.7653L16.7053 20.7594C16.647 20.5922 16.6294 20.4136 16.6541 20.2383C16.6788 20.0629 16.7449 19.8961 16.847 19.7515C16.9492 19.6069 17.0844 19.4887 17.2414 19.4069C17.3984 19.3251 17.5726 19.2819 17.7496 19.281L25.3857 19.2674C25.5259 19.2673 25.6636 19.2309 25.7856 19.1619C25.9075 19.0929 26.0096 18.9936 26.0819 18.8735C26.1542 18.7534 26.1943 18.6168 26.1983 18.4767C26.2022 18.3366 26.17 18.1978 26.1046 18.0739Z" fill="#191818"/>
<path d="M6.27515 13.0012C6.1618 13.0012 6.05069 13.0328 5.95427 13.0923C5.85785 13.1519 5.77994 13.2372 5.72925 13.3386C5.67856 13.44 5.6571 13.5535 5.66727 13.6664C5.67745 13.7792 5.71887 13.8871 5.78688 13.9777L17.519 29.1549C19.1195 31.2256 18.6131 32.166 15.9999 31.9761C14.8335 31.8947 13.6852 31.7636 12.5549 31.5827C9.23645 31.0493 6.41983 29.5618 4.10505 27.1205C-1.78137 20.895 -1.22528 8.71523 5.05446 3.72399C5.4704 3.39847 5.83209 3.4482 6.13952 3.87318L11.7954 11.4686C11.9072 11.622 11.9744 11.8037 11.9895 11.9931C12.0046 12.1825 11.967 12.3719 11.8809 12.54C11.7947 12.708 11.6635 12.8479 11.5022 12.9438C11.3408 13.0397 11.1558 13.0878 10.968 13.0826L6.27515 13.0012Z" fill="#191818"/>
</svg>
