<svg width="542" height="542" viewBox="0 0 542 542" fill="none" xmlns="http://www.w3.org/2000/svg">
<rect width="542" height="542" fill="white"/>
<path d="M417.171 171.431L299.694 82.3231L284.809 71V114.815L388.263 193.215L284.809 271.738V315.554L299.694 304.231L417.171 215.123L446.079 193.215L417.171 171.431Z" fill="#E47725"/>
<path d="M123.908 171.431L95 193.216L123.908 215.123L241.386 304.231L255.901 315.185V271.493L152.816 193.216L255.901 115.185V71.3696L241.386 82.3235L123.908 171.431Z" fill="#E47725"/>
<path d="M446.202 270.754L300.309 381.892L284.809 393.708V349.4L417.048 248.6L446.202 270.754Z" fill="#191818"/>
<path d="M255.903 348.539V392.846L241.633 381.893L95.2478 270.385L124.525 248.354L255.903 348.539Z" fill="#191818"/>
<path d="M446.202 348.046L300.309 459.185L284.809 471V426.692L417.048 325.892L446.202 348.046Z" fill="#191818"/>
<path d="M255.903 425.708V470.139L241.633 459.185L95.2478 347.677L124.525 325.646L255.903 425.708Z" fill="#191818"/>
</svg>
