<svg width="18" height="18" viewBox="0 0 18 18" fill="none" xmlns="http://www.w3.org/2000/svg">
<path d="M0.200195 5.60402C0.258514 5.19216 0.302948 4.77795 0.377075 4.36907C0.797271 2.05318 2.43683 0.4775 4.78113 0.396751C7.60373 0.299766 10.4349 0.294639 13.257 0.396323C15.8086 0.488181 17.6564 2.37746 17.7361 4.92983C17.8209 7.64007 17.8209 10.3569 17.7361 13.0672C17.6564 15.6195 15.8092 17.5086 13.2573 17.6007C10.4351 17.7026 7.6033 17.7051 4.78134 17.5992C2.2294 17.5033 0.465301 15.6097 0.294617 13.0535C0.279877 12.8324 0.232452 12.6132 0.200195 12.3932C0.200195 10.1301 0.200195 7.86693 0.200195 5.60402ZM9.00232 16.088C10.2939 16.088 11.5867 16.1267 12.8766 16.079C14.899 16.004 16.1429 14.7971 16.1901 12.7766C16.2486 10.2591 16.2486 7.73812 16.1901 5.22036C16.1429 3.20034 14.8981 1.96517 12.8766 1.92223C10.3108 1.86797 7.74215 1.8684 5.17633 1.92223C3.1702 1.96432 1.92264 3.17449 1.86816 5.17229C1.79895 7.72167 1.79895 10.2755 1.86816 12.8249C1.92264 14.8225 3.1702 16.0047 5.17654 16.079C6.45016 16.1265 7.72699 16.088 9.00232 16.088Z" fill="white"/>
<path d="M9 4.51538C6.52325 4.51538 4.5152 6.52322 4.5152 8.99997C4.5152 11.4769 6.52325 13.4848 9 13.4848C11.477 13.4848 13.4848 11.4769 13.4848 8.99997C13.4848 6.52322 11.477 4.51538 9 4.51538ZM9 11.9407C7.37582 11.9407 6.05926 10.6241 6.05926 8.99997C6.05926 7.37579 7.37582 6.05923 9 6.05923C10.6242 6.05923 11.9407 7.37579 11.9407 8.99997C11.9407 10.6241 10.6242 11.9407 9 11.9407Z" fill="white"/>
<path d="M14.8135 4.3107C14.8135 4.89987 14.3358 5.37753 13.7467 5.37753C13.1575 5.37753 12.6796 4.89987 12.6796 4.3107C12.6796 3.72131 13.1575 3.24365 13.7467 3.24365C14.3358 3.24365 14.8135 3.72131 14.8135 4.3107Z" fill="white"/>
</svg>
