<svg width="29" height="16" viewBox="0 0 29 16" fill="none" xmlns="http://www.w3.org/2000/svg">
<path d="M1.06026 10.6684L5.73702 15.625C5.84937 15.7438 5.98302 15.8381 6.13029 15.9025C6.27755 15.9669 6.4355 16 6.59503 16C6.75457 16 6.91252 15.9669 7.05978 15.9025C7.20704 15.8381 7.3407 15.7438 7.45305 15.625C7.67812 15.3875 7.80446 15.0662 7.80446 14.7313C7.80446 14.3964 7.67812 14.0751 7.45305 13.8376L3.15091 9.28668L27.7915 9.28668C28.112 9.28668 28.4194 9.15313 28.646 8.91539C28.8727 8.67766 29 8.35522 29 8.01901C29 7.68281 28.8727 7.36037 28.646 7.12264C28.4194 6.8849 28.112 6.75135 27.7915 6.75135L3.0784 6.75134L7.45305 2.17506C7.56631 2.05721 7.65622 1.91701 7.71757 1.76253C7.77892 1.60806 7.81051 1.44236 7.81051 1.27502C7.81051 1.10767 7.77892 0.941979 7.71757 0.787501C7.65622 0.633024 7.56631 0.492817 7.45305 0.374971C7.34071 0.256154 7.20705 0.161848 7.05978 0.0974903C6.91252 0.0331316 6.75457 -1.94476e-06 6.59504 -1.9587e-06C6.4355 -1.97265e-06 6.27755 0.0331315 6.13029 0.0974902C5.98303 0.161848 5.84937 0.256154 5.73703 0.374971L1.06026 5.29353C0.381341 6.00659 -1.1182e-06 6.97318 -1.2063e-06 7.98098C-1.29441e-06 8.98878 0.381341 9.95537 1.06026 10.6684Z" fill="white"/>
</svg>
