<svg width="17" height="16" viewBox="0 0 17 16" fill="none" xmlns="http://www.w3.org/2000/svg">
<path d="M16.3649 10.1264V15.8983H13.0185V10.5133C13.0185 9.16112 12.5353 8.23774 11.3237 8.23774C10.3991 8.23774 9.84977 8.8594 9.6072 9.46134C9.5191 9.67647 9.49639 9.9752 9.49639 10.2769V15.8981H6.14975C6.14975 15.8981 6.19467 6.77754 6.14975 5.83344H9.49664V7.2597C9.4899 7.27093 9.48042 7.28191 9.47443 7.29264H9.49664V7.2597C9.94136 6.5754 10.7345 5.59711 12.5126 5.59711C14.7143 5.59711 16.3649 7.03559 16.3649 10.1264ZM2.64887 0.981934C1.50413 0.981934 0.755188 1.73337 0.755188 2.72064C0.755188 3.68695 1.48242 4.4601 2.60495 4.4601H2.62666C3.79387 4.4601 4.5196 3.68695 4.5196 2.72064C4.49739 1.73337 3.79387 0.981934 2.64887 0.981934ZM0.95409 15.8983H4.29949V5.83344H0.95409V15.8983Z" fill="#F1F2F2"/>
</svg>
