<svg width="16" height="21" viewBox="0 0 16 21" fill="none" xmlns="http://www.w3.org/2000/svg">
<path d="M8 0C5.87913 0.00269615 3.84593 0.811297 2.34625 2.24849C0.846571 3.68568 0.00281338 5.63416 0 7.66666C0 13.1707 7.45333 20.0643 7.77 20.355C7.8316 20.4124 7.91411 20.4444 8 20.4444C8.08589 20.4444 8.1684 20.4124 8.23 20.355C8.54667 20.0643 16 13.1707 16 7.66666C15.9972 5.63416 15.1534 3.68568 13.6537 2.24849C12.1541 0.811297 10.1209 0.00269615 8 0ZM8 11.1805C7.2748 11.1805 6.56589 10.9745 5.96291 10.5883C5.35993 10.2022 4.88996 9.65344 4.61244 9.01136C4.33492 8.36929 4.26231 7.66276 4.40379 6.98113C4.54527 6.29951 4.89448 5.67339 5.40728 5.18197C5.92007 4.69054 6.57341 4.35588 7.28467 4.22029C7.99593 4.08471 8.73318 4.15429 9.40317 4.42025C10.0732 4.68621 10.6458 5.13659 11.0487 5.71445C11.4516 6.2923 11.6667 6.97168 11.6667 7.66666C11.6661 8.59843 11.2796 9.49187 10.5921 10.1507C9.90458 10.8096 8.97228 11.18 8 11.1805Z" fill="#E47725"/>
</svg>
