<svg width="139" height="28" viewBox="0 0 139 28" fill="none" xmlns="http://www.w3.org/2000/svg">
<path d="M22.552 7.03015L14.3286 0.792615L13.2866 0V3.06708L20.5284 8.55508L13.2866 14.0517V17.1188L14.3286 16.3262L22.552 10.0886L24.5756 8.55508L22.552 7.03015Z" fill="#E47725"/>
<path d="M2.02357 7.03019L0 8.55511L2.02357 10.0886L10.247 16.3262L11.2631 17.093V14.0345L4.04713 8.55511L11.2631 3.09296V0.0258789L10.247 0.792648L2.02357 7.03019Z" fill="#E47725"/>
<path d="M24.5842 13.9828L14.3716 21.7625L13.2866 22.5895V19.488L22.5434 12.432L24.5842 13.9828Z" fill="#191818"/>
<path d="M11.2632 19.4277V22.5293L10.2643 21.7625L0.0173492 13.9569L2.06675 12.4148L11.2632 19.4277Z" fill="#191818"/>
<path d="M24.5842 19.3932L14.3716 27.1729L13.2866 27.9999V24.8984L22.5434 17.8424L24.5842 19.3932Z" fill="#191818"/>
<path d="M11.2632 24.8295V27.9397L10.2643 27.1729L0.0173492 19.3673L2.06675 17.8252L11.2632 24.8295Z" fill="#191818"/>
<path d="M41.1774 22.3139H32.377V18.4973H41.1774C41.431 18.4951 41.6737 18.3939 41.8539 18.2152C42.034 18.0366 42.1373 17.7947 42.1418 17.541C42.1566 17.4334 42.137 17.3238 42.086 17.2279C42.035 17.1321 41.9551 17.0547 41.8577 17.0068C41.6428 16.9154 41.4108 16.8713 41.1774 16.8776H37.1733C36.5308 16.884 35.8941 16.7548 35.3048 16.4985C34.7339 16.272 34.2131 15.9353 33.772 15.5077C33.3237 15.0613 32.9668 14.5316 32.7215 13.9484C32.2277 12.7509 32.2277 11.4067 32.7215 10.2093C32.964 9.64346 33.3117 9.12889 33.7462 8.69297C34.194 8.25503 34.7236 7.90959 35.3048 7.67635C35.8986 7.42567 36.5375 7.29958 37.1819 7.30589H44.9834V11.2H37.1733C37.0473 11.1984 36.9222 11.2219 36.8054 11.2693C36.6886 11.3166 36.5824 11.3868 36.4931 11.4757C36.4047 11.547 36.3338 11.6378 36.286 11.7408C36.2383 11.8439 36.2148 11.9566 36.2175 12.0702C36.2142 12.1978 36.237 12.3247 36.2843 12.4432C36.3317 12.5617 36.4027 12.6693 36.4931 12.7594C36.5775 12.8558 36.6824 12.9321 36.8001 12.9828C36.9178 13.0335 37.0453 13.0572 37.1733 13.0524H41.1774C41.8148 13.0496 42.4475 13.1604 43.046 13.3797C43.6063 13.5907 44.123 13.9032 44.5701 14.3016C45.0219 14.6985 45.3857 15.1857 45.6379 15.7317C45.8967 16.2992 46.0262 16.9172 46.0167 17.541C46.0243 18.1812 45.8951 18.8156 45.6379 19.4019C45.142 20.5544 44.2147 21.4667 43.0546 21.9434C42.4608 22.1943 41.8219 22.3204 41.1774 22.3139Z" fill="#191818"/>
<path d="M55.1615 22.3139C54.2734 22.3188 53.3939 22.1398 52.5783 21.7883C51.7834 21.454 51.061 20.9682 50.4514 20.3582C49.8372 19.7533 49.3485 19.0331 49.0133 18.2388C48.6596 17.4235 48.4807 16.543 48.4881 15.6542V11.2H46.6109V7.30588H48.4709V2.08496H52.2683V7.30588H58.0548V11.2H52.2683V15.6197C52.2669 16.0043 52.343 16.3853 52.4921 16.7397C52.6407 17.0798 52.8509 17.3894 53.1121 17.653C53.376 17.9156 53.6891 18.1235 54.0335 18.2647C54.3892 18.4201 54.7734 18.4993 55.1615 18.4973H58.0548V22.3139H55.1615Z" fill="#191818"/>
<path d="M71.9011 17.9544C71.52 17.0705 71.3265 16.1171 71.3328 15.1544C71.3258 14.1164 71.5188 13.0868 71.9011 12.1218C72.2621 11.2128 72.7909 10.3798 73.4597 9.66644C73.6175 9.49417 73.7843 9.33026 73.9592 9.17537L72.9689 8.1846L71.7375 9.64921C71.3977 9.33905 71.0382 9.05126 70.6612 8.78767C70.2767 8.51653 69.8706 8.27737 69.447 8.0726C69.027 7.87277 68.5887 7.71408 68.1382 7.59875C67.6904 7.48639 67.2307 7.42853 66.769 7.42644C65.8056 7.41764 64.8505 7.60525 63.9619 7.97783C63.0997 8.31717 62.3148 8.82703 61.6542 9.4769C60.9851 10.1573 60.4556 10.9622 60.0956 11.8461C59.7084 12.8037 59.5152 13.8286 59.5273 14.8615C59.5083 15.9397 59.7014 17.0111 60.0956 18.0148C60.4538 18.892 60.9837 19.6888 61.6542 20.3581C62.32 20.9909 63.1042 21.4857 63.9619 21.8141C64.8602 22.1463 65.8113 22.3126 66.769 22.3052C67.2275 22.3066 67.6845 22.2516 68.1296 22.1415C68.5754 22.0238 69.0104 21.8682 69.4298 21.6763C69.8407 21.4782 70.2351 21.2477 70.6095 20.9871C70.9908 20.7218 71.3559 20.4341 71.7031 20.1255L72.8656 21.7366L73.9505 20.6769C73.777 20.5389 73.613 20.3892 73.4597 20.2289C72.8001 19.577 72.2711 18.805 71.9011 17.9544ZM70.0928 16.3089C69.9054 16.7575 69.6434 17.1712 69.3179 17.5323C68.992 17.8908 68.6002 18.1833 68.164 18.3938C67.7306 18.6084 67.2526 18.7176 66.769 18.7126C66.2925 18.718 65.8192 18.6333 65.3741 18.4628C64.943 18.3071 64.5539 18.0534 64.2374 17.7218C63.8989 17.3824 63.6375 16.974 63.4711 16.5243C63.1036 15.461 63.1036 14.3051 63.4711 13.2418C63.6426 12.7998 63.9035 12.398 64.2374 12.0615C64.5566 11.7351 64.945 11.4849 65.3741 11.3292C65.8186 11.1559 66.2919 11.0683 66.769 11.0708C67.2533 11.0687 67.7312 11.1809 68.164 11.3981C68.5987 11.6112 68.99 11.9033 69.3179 12.2597C69.6429 12.6244 69.9048 13.0408 70.0928 13.4917C70.4602 14.4067 70.4602 15.4283 70.0928 16.3434V16.3089Z" fill="#191818"/>
<path d="M86.5397 10.7606L83.8962 13.4055C83.764 13.0482 83.5813 12.7117 83.3537 12.4062C83.1304 12.1249 82.8697 11.8756 82.5787 11.6652C82.2918 11.4625 81.9751 11.3055 81.6401 11.2C81.3099 11.0892 80.9637 11.0339 80.6154 11.0363C80.1313 11.0347 79.6526 11.1375 79.2118 11.3378C78.78 11.5475 78.3938 11.8403 78.0752 12.1994C77.7434 12.5817 77.4863 13.023 77.3174 13.5003C77.1256 14.0303 77.0322 14.5909 77.0419 15.1545C77.0369 15.6309 77.1307 16.1032 77.3174 16.5415C77.6798 17.3979 78.3629 18.0782 79.2204 18.4369C79.6655 18.6207 80.1425 18.7144 80.624 18.7126C80.9682 18.7166 81.311 18.6672 81.6401 18.5662C81.9647 18.4713 82.2748 18.3321 82.5615 18.1526C82.8476 17.9731 83.1058 17.7525 83.3278 17.4978C83.5499 17.2372 83.7354 16.9473 83.8789 16.6363L86.5225 19.2812C86.1888 19.7497 85.8015 20.1777 85.3686 20.5563C84.9317 20.9378 84.452 21.2674 83.9392 21.5385C83.4315 21.8011 82.8937 22.0008 82.3376 22.1329C80.8258 22.5001 79.2365 22.3764 77.7996 21.7797C76.9408 21.4183 76.1579 20.898 75.4919 20.2462C74.8336 19.5917 74.3074 18.8165 73.9419 17.9631C73.5603 17.0824 73.3667 16.1316 73.3736 15.1717C73.3586 13.1398 74.1158 11.1781 75.4919 9.68369C76.1462 8.9895 76.9303 8.43044 77.7996 8.03816C78.6822 7.63074 79.6434 7.42194 80.6154 7.42646C81.1965 7.42914 81.7751 7.50439 82.3376 7.65046C82.9041 7.80336 83.4504 8.02316 83.965 8.30523C84.4819 8.59363 84.9619 8.94367 85.3945 9.34769C85.8394 9.76367 86.2248 10.2391 86.5397 10.7606Z" fill="#191818"/>
<path d="M91.956 22.512H88.1069V2.28308H91.956V14.8012L97.7339 7.52985H102.134L97.0881 13.8277L102.057 22.512H97.6564L94.6168 17.0929L91.956 20.608V22.512Z" fill="#191818"/>
<path d="M124.273 2.08496L120.32 7.45234H119.881C118.843 7.4499 117.816 7.65866 116.861 8.06596C115.906 8.47325 115.044 9.07056 114.327 9.82157C116.17 7.34034 118.004 4.85624 119.83 2.36927C119.888 2.27501 119.971 2.19862 120.069 2.14846C120.168 2.09831 120.279 2.07634 120.389 2.08496C121.543 2.08496 122.697 2.08496 123.834 2.08496H124.273Z" fill="#191818"/>
<path d="M113.922 19.5397C112.949 18.3386 112.366 16.8686 112.252 15.3268C112.146 16.2048 111.766 17.0272 111.167 17.6768C110.567 18.3265 109.777 18.7703 108.911 18.9452H108.808H108.446C107.444 19.0298 106.445 18.7483 105.634 18.1527C104.824 17.5571 104.256 16.6878 104.037 15.7058C103.968 15.4215 103.942 15.1372 103.891 14.8443C103.891 14.8443 103.891 14.8443 103.891 14.7926H100.61C100.61 15.1631 100.61 15.5077 100.696 15.8437C100.9 17.224 101.486 18.5199 102.387 19.5854C103.287 20.6508 104.467 21.4436 105.794 21.8744L106.121 21.9692C106.31 22.0209 106.508 22.064 106.706 22.0984H106.853H107.12C107.2 22.1027 107.281 22.1027 107.361 22.0984H107.688C107.849 22.1072 108.01 22.1072 108.17 22.0984C109.275 22.0939 110.366 21.8434 111.362 21.3651C112.358 20.8868 113.236 20.1926 113.931 19.3329" fill="#191818"/>
<path d="M111.572 8.09851L113.544 9.58036C112.755 10.5353 112.187 11.6535 111.882 12.8542C111.552 12.4352 111.198 12.0354 110.822 11.6567C110.103 10.9948 109.157 10.6341 108.179 10.6487H105.596L109.436 5.47944H102.754L103.159 4.96251L105.441 2.12805H115.817H116.015L111.572 8.09851Z" fill="#191818"/>
<path d="M138.894 14.8012C138.893 16.6432 138.215 18.4206 136.99 19.7948C135.764 21.169 134.076 22.0442 132.246 22.2535C131.971 22.2535 131.687 22.2966 131.385 22.2966H131.041C130.923 22.3052 130.805 22.3052 130.688 22.2966H130.447H130.292C130.198 22.2885 130.106 22.2712 130.016 22.2449L129.68 22.176C128.432 21.8627 127.284 21.2338 126.348 20.3495L126.107 20.1859C126.877 19.2608 127.444 18.1833 127.769 17.024C128.135 17.659 128.662 18.186 129.297 18.5521C129.932 18.9181 130.653 19.1102 131.385 19.1089C132.048 19.1114 132.701 18.9517 133.288 18.6437C133.377 18.6029 133.463 18.5569 133.547 18.5059C134.093 18.1946 134.56 17.7628 134.914 17.2431C135.268 16.7235 135.498 16.13 135.587 15.5077C135.679 14.9646 135.662 14.4087 135.538 13.8721C135.414 13.3355 135.186 12.8285 134.866 12.3804C134.546 11.9322 134.141 11.5516 133.673 11.2603C133.206 10.9691 132.686 10.7729 132.143 10.6831C131.481 10.5822 130.804 10.6396 130.167 10.8508C129.531 11.0619 128.954 11.4207 128.483 11.8979L128.363 12.0271L128.242 12.1649C127.6 12.9005 127.243 13.8419 127.235 14.8185V14.8788C127.218 16.7873 126.475 18.6177 125.157 19.9974C123.838 21.377 122.044 22.2023 120.139 22.3052H119.442L118.788 22.2535H118.555L118.314 22.2105H118.202H118.15C116.945 21.9074 115.831 21.3161 114.904 20.4874L114.611 20.2203L114.517 20.1083C115.277 19.1947 115.832 18.1281 116.144 16.9809C116.508 17.621 117.036 18.1528 117.673 18.5221C118.31 18.8915 119.033 19.085 119.769 19.0831C120.145 19.0841 120.519 19.0319 120.88 18.928L121.061 18.8763L121.199 18.8332C121.919 18.5793 122.557 18.1341 123.044 17.5452C123.531 16.9564 123.848 16.2461 123.963 15.4905C124.001 15.2742 124.021 15.0552 124.023 14.8357C124.021 13.144 124.585 11.5003 125.625 10.1662C126.399 9.23381 127.381 8.49612 128.492 8.01231C129.33 7.63744 130.228 7.41568 131.144 7.35754H131.85C133.748 7.47531 135.531 8.30916 136.838 9.69074C138.146 11.0723 138.88 12.8987 138.894 14.8012Z" fill="#E47725"/>
<path d="M125.065 9.70092C124.313 10.6092 123.761 11.6661 123.446 12.8025C123.118 12.3927 122.755 12.0122 122.361 11.6652C121.895 11.2991 121.357 11.0351 120.783 10.8903C120.208 10.7455 119.61 10.7231 119.026 10.8247C118.442 10.9262 117.886 11.1494 117.394 11.4797C116.902 11.81 116.485 12.2402 116.17 12.7422C115.754 13.3941 115.528 14.1487 115.515 14.9218V14.9822C115.515 15.1774 115.515 15.3756 115.515 15.5766V15.8092C115.52 15.8378 115.52 15.8668 115.515 15.8954C115.339 17.2622 114.788 18.5534 113.922 19.6258C112.952 18.4388 112.377 16.9778 112.278 15.4474C112.381 14.5858 112.45 13.7243 112.639 12.8628C112.898 11.9221 113.343 11.0431 113.948 10.2782C114.077 10.1145 114.198 9.94215 114.327 9.76985C115.017 9.03702 115.848 8.45101 116.77 8.04688C117.692 7.64275 118.685 7.42881 119.692 7.41785H120.122C120.681 7.44798 121.236 7.53751 121.776 7.68492H121.931L122.275 7.79692C123.337 8.21273 124.291 8.86368 125.065 9.70092Z" fill="#E47725"/>
<path d="M102.358 27.9912H101.815C101.725 27.9983 101.634 27.9866 101.548 27.957C101.462 27.9273 101.383 27.8803 101.316 27.8189C101.196 27.6809 101.134 27.5018 101.144 27.3192V25.7512C101.133 25.6603 101.142 25.568 101.172 25.4814C101.202 25.3948 101.251 25.3161 101.316 25.2513C101.381 25.1866 101.459 25.1374 101.546 25.1076C101.632 25.0777 101.725 25.068 101.815 25.0792H102.358C102.538 25.0712 102.714 25.1329 102.849 25.2515C102.911 25.3181 102.96 25.3968 102.991 25.4827C103.022 25.5686 103.035 25.66 103.03 25.7512V25.9666C103.031 25.976 103.03 25.9856 103.027 25.9946C103.024 26.0036 103.019 26.0118 103.013 26.0186C103.006 26.0253 102.998 26.0303 102.989 26.0333C102.98 26.0362 102.97 26.037 102.961 26.0355H102.763C102.753 26.037 102.744 26.0362 102.735 26.0333C102.726 26.0303 102.717 26.0253 102.711 26.0186C102.704 26.0118 102.699 26.0036 102.696 25.9946C102.693 25.9856 102.692 25.976 102.694 25.9666V25.7598C102.694 25.5013 102.573 25.3635 102.315 25.3635H101.85C101.797 25.3575 101.744 25.3638 101.694 25.3819C101.644 25.4 101.599 25.4294 101.562 25.4677C101.526 25.5061 101.498 25.5524 101.483 25.6031C101.467 25.6537 101.463 25.7074 101.471 25.7598V27.3106C101.463 27.363 101.467 27.4166 101.483 27.4673C101.498 27.518 101.526 27.5643 101.562 27.6027C101.599 27.641 101.644 27.6704 101.694 27.6885C101.744 27.7065 101.797 27.7128 101.85 27.7069H102.315C102.573 27.7069 102.694 27.569 102.694 27.3106V27.1038C102.692 27.0944 102.693 27.0848 102.696 27.0758C102.699 27.0667 102.704 27.0585 102.711 27.0518C102.717 27.0451 102.726 27.0401 102.735 27.0371C102.744 27.0342 102.753 27.0334 102.763 27.0349H102.961C102.97 27.0334 102.98 27.0342 102.989 27.0371C102.998 27.0401 103.006 27.0451 103.013 27.0518C103.019 27.0585 103.024 27.0667 103.027 27.0758C103.03 27.0848 103.031 27.0944 103.03 27.1038V27.3192C103.035 27.4104 103.022 27.5018 102.991 27.5877C102.96 27.6736 102.911 27.7523 102.849 27.8189C102.783 27.8796 102.706 27.9263 102.621 27.9559C102.537 27.9856 102.447 27.9976 102.358 27.9912Z" fill="#191818"/>
<path d="M104.803 27.9914H104.27C104.18 27.9989 104.09 27.9874 104.006 27.9577C103.921 27.928 103.844 27.8808 103.779 27.8191C103.716 27.7525 103.668 27.6738 103.637 27.5879C103.606 27.502 103.593 27.4107 103.598 27.3194V25.7514C103.588 25.6609 103.599 25.5693 103.63 25.4835C103.66 25.3976 103.709 25.3197 103.774 25.2553C103.838 25.1909 103.916 25.1417 104.002 25.1113C104.088 25.0808 104.179 25.07 104.27 25.0794H104.803C104.894 25.0683 104.987 25.078 105.073 25.1078C105.16 25.1377 105.238 25.1868 105.303 25.2516C105.368 25.3164 105.417 25.395 105.447 25.4816C105.477 25.5682 105.486 25.6605 105.475 25.7514V27.3194C105.484 27.502 105.423 27.6811 105.303 27.8191C105.236 27.8806 105.157 27.9276 105.071 27.9572C104.985 27.9868 104.894 27.9985 104.803 27.9914ZM104.304 27.7071H104.769C104.822 27.7131 104.875 27.7068 104.925 27.6887C104.975 27.6706 105.02 27.6413 105.057 27.6029C105.093 27.5645 105.121 27.5182 105.136 27.4676C105.152 27.4169 105.156 27.3633 105.148 27.3108V25.7601C105.156 25.7076 105.152 25.654 105.136 25.6033C105.121 25.5527 105.093 25.5063 105.057 25.468C105.02 25.4296 104.975 25.4002 104.925 25.3822C104.875 25.3641 104.822 25.3578 104.769 25.3637H104.304C104.251 25.3578 104.198 25.3641 104.148 25.3822C104.098 25.4002 104.053 25.4296 104.016 25.468C103.98 25.5063 103.952 25.5527 103.937 25.6033C103.921 25.654 103.917 25.7076 103.925 25.7601V27.3108C103.917 27.3633 103.921 27.4169 103.937 27.4676C103.952 27.5182 103.98 27.5645 104.016 27.6029C104.053 27.6413 104.098 27.6706 104.148 27.6887C104.198 27.7068 104.251 27.7131 104.304 27.7071Z" fill="#191818"/>
<path d="M106.147 27.9311V25.1397C106.147 25.0967 106.147 25.0794 106.216 25.0794H107.326C107.417 25.0683 107.51 25.078 107.596 25.1078C107.683 25.1377 107.761 25.1868 107.826 25.2516C107.891 25.3164 107.94 25.395 107.97 25.4816C108 25.5682 108.009 25.6605 107.998 25.7514V27.3194C108.007 27.502 107.946 27.6811 107.826 27.8191C107.759 27.8806 107.68 27.9276 107.594 27.9572C107.508 27.9868 107.417 27.9985 107.326 27.9914H106.216C106.216 27.9914 106.147 27.9742 106.147 27.9311ZM106.526 27.7071H107.292C107.345 27.7131 107.398 27.7068 107.448 27.6887C107.498 27.6706 107.543 27.6413 107.58 27.6029C107.616 27.5645 107.644 27.5182 107.659 27.4676C107.675 27.4169 107.679 27.3633 107.671 27.3108V25.7601C107.679 25.7076 107.675 25.654 107.659 25.6033C107.644 25.5527 107.616 25.5063 107.58 25.468C107.543 25.4296 107.498 25.4002 107.448 25.3822C107.398 25.3641 107.345 25.3578 107.292 25.3637H106.526V27.621V27.7071Z" fill="#191818"/>
<path d="M110.159 27.9913H108.739C108.739 27.9913 108.67 27.9913 108.67 27.931V25.1397C108.67 25.0966 108.67 25.0793 108.739 25.0793H110.159C110.159 25.0793 110.228 25.0793 110.228 25.1397V25.3033C110.228 25.3464 110.228 25.3637 110.159 25.3637H109.049V26.2855H110.022C110.022 26.2855 110.082 26.2855 110.082 26.3544V26.5181C110.082 26.5612 110.082 26.5784 110.022 26.5784H109.049V27.5433H110.159C110.159 27.5433 110.228 27.5433 110.228 27.6037V27.7673C110.228 27.7673 110.22 27.9913 110.159 27.9913Z" fill="#191818"/>
<path d="M112.002 27.9311V25.1397C112.002 25.0966 112.002 25.0794 112.071 25.0794H113.13C113.22 25.0701 113.311 25.0809 113.396 25.1108C113.481 25.1407 113.558 25.1891 113.622 25.2526C113.687 25.316 113.736 25.3928 113.767 25.4776C113.798 25.5623 113.81 25.6529 113.802 25.7428V25.9926C113.809 26.1096 113.775 26.2254 113.706 26.3199C113.637 26.4144 113.537 26.4815 113.423 26.5096C113.48 26.5148 113.535 26.5312 113.585 26.5578C113.635 26.5844 113.68 26.6207 113.716 26.6646C113.798 26.7671 113.84 26.8954 113.836 27.0265V27.3366C113.842 27.4253 113.829 27.5141 113.798 27.5972C113.766 27.6804 113.718 27.756 113.655 27.8191C113.59 27.8799 113.512 27.9265 113.428 27.9561C113.344 27.9858 113.254 27.9978 113.165 27.9914H112.071C112.028 27.9914 112.002 27.9742 112.002 27.9311ZM112.381 26.3717H113.079C113.132 26.3803 113.186 26.3763 113.238 26.36C113.289 26.3437 113.336 26.3156 113.374 26.2779C113.413 26.2401 113.442 26.1939 113.459 26.1429C113.477 26.0918 113.482 26.0374 113.475 25.984V25.7428C113.483 25.6907 113.48 25.6373 113.464 25.5869C113.448 25.5365 113.42 25.4906 113.383 25.4528C113.347 25.415 113.301 25.3865 113.251 25.3695C113.201 25.3526 113.148 25.3476 113.096 25.3551H112.381C112.381 25.3551 112.381 25.3551 112.381 25.4068V26.3286C112.381 26.3286 112.347 26.3717 112.381 26.3717ZM112.381 27.7157H113.122C113.175 27.7243 113.229 27.7203 113.281 27.704C113.332 27.6877 113.379 27.6596 113.417 27.6219C113.456 27.5841 113.485 27.5379 113.503 27.4869C113.52 27.4358 113.525 27.3814 113.518 27.328V27.0351C113.518 26.7766 113.371 26.6474 113.096 26.6474H112.381C112.381 26.6474 112.381 26.6474 112.381 26.6905V27.6726C112.381 27.6726 112.347 27.7157 112.381 27.7157Z" fill="#191818"/>
<path d="M115.98 27.9913H114.525C114.525 27.9913 114.456 27.9913 114.456 27.931V25.1397C114.456 25.0966 114.456 25.0793 114.525 25.0793H115.946C115.989 25.0793 116.015 25.0793 116.015 25.1397V25.3033C116.015 25.3464 116.015 25.3637 115.946 25.3637H114.87H114.827V26.2855C114.827 26.2855 114.827 26.2855 114.87 26.2855H115.843C115.886 26.2855 115.903 26.2855 115.903 26.3544V26.5181C115.903 26.5612 115.903 26.5784 115.843 26.5784H114.87H114.827V27.5433H114.87H115.98C116.023 27.5433 116.049 27.5433 116.049 27.6037V27.7673C116.049 27.7673 116.023 27.9913 115.98 27.9913Z" fill="#191818"/>
<path d="M117.548 27.9914H117.341C117.298 27.9914 117.281 27.9914 117.281 27.9311V26.8973L116.42 25.1742C116.42 25.1742 116.42 25.1311 116.42 25.1225C116.42 25.1139 116.42 25.1225 116.463 25.1225H116.712C116.73 25.122 116.748 25.1278 116.762 25.1388C116.776 25.1498 116.786 25.1653 116.79 25.1828L117.436 26.5613L118.081 25.1828C118.084 25.166 118.092 25.1506 118.104 25.1395C118.117 25.1284 118.134 25.1223 118.15 25.1225H118.409C118.46 25.1225 118.478 25.1225 118.452 25.1914L117.591 26.9145V27.9483C117.591 27.9483 117.591 27.9914 117.548 27.9914Z" fill="#191818"/>
<path d="M120.105 27.9914H119.571C119.48 28.0025 119.388 27.9928 119.302 27.963C119.215 27.9332 119.136 27.884 119.072 27.8192C119.007 27.7545 118.958 27.6758 118.928 27.5892C118.898 27.5026 118.888 27.4103 118.9 27.3194V25.7514C118.892 25.6607 118.904 25.5696 118.934 25.4836C118.963 25.3977 119.01 25.3187 119.072 25.2517C119.21 25.1318 119.389 25.07 119.571 25.0794H120.105C120.285 25.0695 120.462 25.1315 120.596 25.2517C120.658 25.3183 120.707 25.397 120.738 25.4829C120.769 25.5688 120.782 25.6602 120.777 25.7514V27.3194C120.782 27.4106 120.769 27.502 120.738 27.5879C120.707 27.6738 120.658 27.7525 120.596 27.8191C120.53 27.8803 120.453 27.9272 120.369 27.9569C120.284 27.9865 120.194 27.9983 120.105 27.9914ZM119.606 27.7071H120.062C120.115 27.7145 120.17 27.7093 120.221 27.6919C120.272 27.6745 120.318 27.6453 120.356 27.6067C120.393 27.5682 120.422 27.5213 120.438 27.4699C120.454 27.4185 120.458 27.364 120.45 27.3108V25.76C120.458 25.7068 120.454 25.6523 120.438 25.6009C120.422 25.5495 120.393 25.5026 120.356 25.464C120.318 25.4255 120.272 25.3963 120.221 25.3789C120.17 25.3615 120.115 25.3563 120.062 25.3637H119.606C119.553 25.3577 119.5 25.364 119.45 25.3821C119.4 25.4002 119.355 25.4296 119.318 25.4679C119.281 25.5063 119.254 25.5526 119.238 25.6033C119.222 25.6539 119.218 25.7076 119.227 25.76V27.3108C119.218 27.3632 119.222 27.4168 119.238 27.4675C119.254 27.5182 119.281 27.5645 119.318 27.6029C119.355 27.6412 119.4 27.6706 119.45 27.6887C119.5 27.7067 119.553 27.713 119.606 27.7071Z" fill="#191818"/>
<path d="M121.715 27.9914H121.517C121.474 27.9914 121.448 27.9914 121.448 27.9311V25.1397C121.448 25.0966 121.448 25.0794 121.517 25.0794H121.698C121.71 25.0733 121.723 25.0702 121.737 25.0702C121.75 25.0702 121.764 25.0733 121.776 25.0794L123.024 27.2763V25.1397C123.024 25.0966 123.024 25.0794 123.093 25.0794H123.291C123.334 25.0794 123.351 25.0794 123.351 25.1397V27.9311C123.351 27.9311 123.351 27.9914 123.291 27.9914H123.136C123.118 27.9901 123.099 27.9849 123.083 27.9759C123.067 27.967 123.053 27.9547 123.041 27.9397L121.793 25.76V27.9311C121.793 27.9311 121.758 27.9914 121.715 27.9914Z" fill="#191818"/>
<path d="M124.083 27.9311V25.1397C124.083 25.0967 124.083 25.0794 124.152 25.0794H125.263C125.354 25.0683 125.446 25.078 125.533 25.1078C125.619 25.1377 125.698 25.1868 125.763 25.2516C125.827 25.3164 125.876 25.395 125.906 25.4816C125.936 25.5682 125.946 25.6605 125.935 25.7514V27.3194C125.944 27.502 125.882 27.6811 125.762 27.8191C125.695 27.8806 125.617 27.9276 125.531 27.9572C125.445 27.9868 125.354 27.9985 125.263 27.9914H124.152C124.109 27.9914 124.083 27.9742 124.083 27.9311ZM124.462 27.7071H125.229C125.281 27.7131 125.335 27.7068 125.385 27.6887C125.434 27.6706 125.479 27.6413 125.516 27.6029C125.553 27.5645 125.58 27.5182 125.596 27.4676C125.612 27.4169 125.616 27.3633 125.607 27.3108V25.7601C125.616 25.7076 125.612 25.654 125.596 25.6033C125.58 25.5527 125.553 25.5063 125.516 25.468C125.479 25.4296 125.434 25.4002 125.385 25.3822C125.335 25.3641 125.281 25.3578 125.229 25.3637H124.462V27.621V27.7071Z" fill="#191818"/>
<path d="M129.284 27.9913H127.829C127.829 27.9913 127.76 27.9913 127.76 27.931V25.1397C127.76 25.0966 127.76 25.0793 127.829 25.0793H128.027C128.027 25.0793 128.096 25.0793 128.096 25.1397V27.6553C128.096 27.6553 128.096 27.6553 128.139 27.6553H129.284C129.327 27.6553 129.345 27.6553 129.345 27.7243V27.888C129.345 27.888 129.327 27.9913 129.284 27.9913Z" fill="#191818"/>
<path d="M130.163 25.1397V27.9311C130.164 27.9393 130.164 27.9478 130.161 27.9559C130.159 27.9639 130.154 27.9712 130.148 27.9771C130.142 27.983 130.135 27.9875 130.127 27.9899C130.119 27.9924 130.111 27.9929 130.102 27.9914H129.896C129.896 27.9914 129.827 27.9914 129.827 27.9311V25.1397C129.827 25.0966 129.827 25.0794 129.896 25.0794H130.102C130.111 25.0778 130.119 25.0783 130.127 25.0808C130.135 25.0833 130.142 25.0877 130.148 25.0936C130.154 25.0996 130.159 25.1069 130.161 25.1149C130.164 25.1229 130.164 25.1314 130.163 25.1397Z" fill="#191818"/>
<path d="M132.953 25.0794H133.323C133.323 25.0794 133.383 25.0794 133.383 25.1397V27.9311C133.383 27.9311 133.383 27.9914 133.323 27.9914H133.116C133.108 27.993 133.099 27.9925 133.091 27.99C133.083 27.9875 133.076 27.9831 133.07 27.9772C133.064 27.9712 133.06 27.9639 133.057 27.9559C133.055 27.9479 133.054 27.9394 133.056 27.9311V25.5188L132.35 27.3022C132.344 27.3184 132.333 27.3325 132.319 27.3432C132.306 27.3538 132.289 27.3605 132.272 27.3625H132.057C132.039 27.3629 132.022 27.3572 132.008 27.3462C131.993 27.3352 131.983 27.3196 131.98 27.3022L131.256 25.5188V27.9311C131.256 27.9311 131.256 27.9914 131.196 27.9914H130.998C130.955 27.9914 130.938 27.9914 130.938 27.9311V25.1397C130.938 25.0966 130.938 25.0794 130.998 25.0794H131.368C131.376 25.0738 131.385 25.0708 131.394 25.0708C131.403 25.0708 131.412 25.0738 131.42 25.0794L132.169 26.9576L132.918 25.0794C132.918 25.0794 132.918 25.0794 132.953 25.0794Z" fill="#191818"/>
<path d="M134.451 25.1397V27.931C134.451 27.931 134.451 27.9913 134.391 27.9913H134.184C134.141 27.9913 134.124 27.9913 134.124 27.931V25.1397C134.124 25.0966 134.124 25.0793 134.184 25.0793H134.391C134.434 25.0793 134.451 25.0966 134.451 25.1397Z" fill="#191818"/>
<path d="M135.906 27.9914H135.699C135.656 27.9914 135.639 27.9914 135.639 27.9311V25.4067H135.596H134.976C134.933 25.4067 134.907 25.4067 134.907 25.3464V25.1827C134.907 25.1397 134.907 25.1224 134.976 25.1224H136.629C136.681 25.1224 136.698 25.1224 136.698 25.1827V25.3464C136.698 25.3895 136.698 25.4067 136.629 25.4067H136.052H136.001V27.9311C136.001 27.9311 135.949 27.9914 135.906 27.9914Z" fill="#191818"/>
<path d="M137.103 27.3194V27.1816C137.103 27.1385 137.103 27.1127 137.163 27.1127H137.37C137.413 27.1127 137.43 27.1127 137.43 27.1816V27.2936C137.422 27.3491 137.426 27.4058 137.443 27.4593C137.461 27.5127 137.49 27.5614 137.529 27.6015C137.569 27.6417 137.617 27.6721 137.67 27.6904C137.723 27.7087 137.779 27.7145 137.835 27.7071H138.231C138.507 27.7071 138.636 27.5693 138.636 27.285V27.1299C138.636 26.9145 138.455 26.7767 138.102 26.7077L137.646 26.613C137.498 26.58 137.364 26.5052 137.258 26.3976C137.204 26.3402 137.163 26.2723 137.136 26.1982C137.109 26.1242 137.098 26.0454 137.103 25.9668V25.7514C137.092 25.6605 137.102 25.5682 137.131 25.4816C137.161 25.395 137.21 25.3164 137.275 25.2516C137.34 25.1868 137.418 25.1377 137.505 25.1078C137.592 25.078 137.684 25.0683 137.775 25.0794H138.274C138.454 25.0714 138.63 25.1331 138.765 25.2517C138.827 25.3184 138.876 25.397 138.907 25.4829C138.938 25.5689 138.951 25.6602 138.946 25.7514V25.8462C138.946 25.8893 138.946 25.9151 138.885 25.9151H138.679C138.636 25.9151 138.619 25.9151 138.619 25.8462V25.7601C138.627 25.7045 138.623 25.6478 138.605 25.5944C138.588 25.5409 138.559 25.4922 138.519 25.4521C138.48 25.412 138.432 25.3816 138.379 25.3632C138.326 25.3449 138.269 25.3392 138.214 25.3465H137.826C137.559 25.3465 137.43 25.493 137.43 25.7773V25.9668C137.43 26.1133 137.525 26.2253 137.732 26.277L138.033 26.3459L138.36 26.4234C138.465 26.4532 138.566 26.4936 138.662 26.5441C138.753 26.5894 138.828 26.6616 138.877 26.7508C138.937 26.8584 138.967 26.9806 138.963 27.104V27.3022C138.968 27.3934 138.955 27.4848 138.924 27.5707C138.893 27.6566 138.845 27.7353 138.782 27.8019C138.716 27.8627 138.639 27.9093 138.555 27.9389C138.47 27.9686 138.381 27.9806 138.291 27.9742H137.775C137.685 27.9806 137.596 27.9686 137.511 27.9389C137.427 27.9093 137.35 27.8627 137.284 27.8019C137.223 27.7373 137.176 27.6615 137.145 27.5787C137.114 27.4959 137.1 27.4078 137.103 27.3194Z" fill="#191818"/>
</svg>
