<svg width="16" height="12" viewBox="0 0 16 12" fill="none" xmlns="http://www.w3.org/2000/svg">
<path d="M9.33716 7.79474C8.93909 8.06011 8.47672 8.2004 8 8.2004C7.52331 8.2004 7.06094 8.06011 6.66287 7.79474L0.106531 3.42371C0.0701562 3.39946 0.0347187 3.37418 0 3.34818V10.5106C0 11.3318 0.666406 11.9835 1.47291 11.9835H14.5271C15.3482 11.9835 16 11.3171 16 10.5106V3.34814C15.9652 3.37421 15.9297 3.39955 15.8932 3.42383L9.33716 7.79474Z" fill="#E47725"/>
<path d="M0.626562 2.6435L7.18291 7.01456C7.43109 7.18003 7.71553 7.26275 7.99997 7.26275C8.28444 7.26275 8.56891 7.18 8.81709 7.01456L15.3734 2.6435C15.7658 2.38209 16 1.94459 16 1.47241C16 0.6605 15.3395 0 14.5276 0H1.47241C0.660531 3.125e-05 0 0.660531 0 1.47319C0 1.94459 0.23425 2.38209 0.626562 2.6435Z" fill="#E47725"/>
</svg>
