<svg width="33" height="40" viewBox="0 0 33 40" fill="none" xmlns="http://www.w3.org/2000/svg">
<path d="M27.1812 21.2713C27.2212 18.1547 28.8546 15.2764 31.5095 13.6448C29.8279 11.2415 27.1096 9.77316 24.178 9.68149C21.093 9.35817 18.1031 11.5265 16.5315 11.5265C14.9298 11.5265 12.5099 9.71316 9.90324 9.76649C6.47497 9.87816 3.35503 11.7798 1.68673 14.7781C-1.86487 20.9279 0.783412 29.9678 4.18668 34.9394C5.88998 37.3743 7.87828 40.0926 10.4832 39.9976C13.0315 39.8926 13.9832 38.3726 17.0581 38.3726C20.1047 38.3726 20.998 39.9976 23.6546 39.9359C26.3879 39.8909 28.1112 37.491 29.7545 35.0327C30.9778 33.2977 31.9195 31.3811 32.5428 29.3528C29.2962 27.9795 27.1846 24.7979 27.1812 21.2713Z" fill="#E47725"/>
<path d="M22.1627 6.41155C23.6527 4.62158 24.3877 2.32162 24.2094 0C21.9328 0.239995 19.8278 1.32831 18.3178 3.04828C16.8262 4.74658 16.0695 6.96654 16.2162 9.22316C18.5245 9.24649 20.7161 8.20985 22.1627 6.41155Z" fill="#E47725"/>
</svg>
