<svg width="37" height="40" viewBox="0 0 37 40" fill="none" xmlns="http://www.w3.org/2000/svg">
<path d="M33.5244 23.15L32.7744 22.7167C32.941 21.8167 33.0244 20.9 33.0244 20C33.0244 19.1 32.941 18.2 32.7744 17.2833L33.5244 16.85C35.9077 15.4833 36.741 12.4167 35.3744 10.0167C34.7077 8.86667 33.6244 8.03333 32.341 7.68333C31.0577 7.33333 29.7077 7.51667 28.541 8.18333L27.791 8.61667C26.391 7.41667 24.7744 6.48333 23.0244 5.86667V5C23.0244 2.25 20.7744 0 18.0244 0C15.2744 0 13.0244 2.25 13.0244 5V5.86667C11.2744 6.48333 9.6577 7.41667 8.2577 8.61667L7.5077 8.18333C6.3577 7.51667 5.0077 7.35 3.7077 7.68333C2.42437 8.03333 1.34103 8.86667 0.674366 10.0167C-0.692301 12.4 0.124366 15.4667 2.5077 16.85L3.2577 17.2833C3.09103 18.1833 3.0077 19.1 3.0077 20C3.0077 20.9 3.09103 21.8 3.2577 22.7167L2.5077 23.15C0.124366 24.5167 -0.708968 27.5833 0.657699 29.9833C1.32437 31.1333 2.4077 31.9667 3.69103 32.3167C4.97437 32.6667 6.32437 32.4833 7.49103 31.8167L8.24103 31.3833C9.64103 32.5833 11.2577 33.5167 13.0077 34.1333V35C13.0077 37.75 15.2577 40 18.0077 40C20.7577 40 23.0077 37.75 23.0077 35V34.1333C24.7577 33.5167 26.3744 32.5833 27.7744 31.3833L28.5244 31.8167C29.6744 32.4833 31.0244 32.6667 32.3244 32.3167C33.6077 31.9667 34.691 31.1333 35.3577 29.9833C36.7244 27.6 35.9077 24.5333 33.5244 23.15ZM13.3744 22.0833C14.0244 22.7333 14.0244 23.7833 13.3744 24.4333C13.041 24.7667 12.6244 24.9167 12.191 24.9167C11.7577 24.9167 11.341 24.75 11.0077 24.4333L8.99103 22.4167C7.69103 21.1167 7.69103 19.0167 8.99103 17.7333L11.0077 15.7167C11.6577 15.0667 12.7077 15.0667 13.3577 15.7167C14.0077 16.3667 14.0077 17.4167 13.3577 18.0667L11.341 20.0833L13.3577 22.0667L13.3744 22.0833ZM20.991 13.6667L18.3244 27C18.1744 27.8 17.4744 28.3333 16.691 28.3333C16.591 28.3333 16.4744 28.3333 16.3577 28.3C15.4577 28.1167 14.8744 27.25 15.0577 26.3333L17.7244 13C17.9077 12.1 18.7744 11.5167 19.691 11.7C20.591 11.8833 21.1744 12.75 20.991 13.6667ZM27.0577 22.4167L25.041 24.4333C24.7077 24.7667 24.291 24.9167 23.8577 24.9167C23.4244 24.9167 23.0077 24.75 22.6744 24.4333C22.0244 23.7833 22.0244 22.7333 22.6744 22.0833L24.691 20.0667L22.6744 18.0667C22.0244 17.4167 22.0244 16.3667 22.6744 15.7167C23.3244 15.0667 24.3744 15.0667 25.0244 15.7167L27.041 17.7333C28.341 19.0333 28.341 21.1333 27.041 22.4167H27.0577Z" fill="white"/>
</svg>
