<svg width="34" height="40" viewBox="0 0 34 40" fill="none" xmlns="http://www.w3.org/2000/svg">
<path d="M28.1815 30.3205C28.1815 31.2192 27.4476 31.9484 26.5361 31.9484H7.47837C6.56857 31.9484 5.83203 31.2192 5.83203 30.3205V13.5026C10.8276 13.4846 22.4816 13.4846 28.1815 13.5026V30.3205Z" fill="white"/>
<path d="M12.8926 4.87994C12.9866 5.06225 12.9152 5.29017 12.7281 5.38473C12.5426 5.47761 12.312 5.40455 12.2179 5.22139L9.80896 0.583742C9.71322 0.398904 9.78974 0.175268 9.97526 0.0798679C10.1607 -0.0147764 10.3896 0.0583694 10.4854 0.242451L12.8927 4.8801L12.8926 4.87994Z" fill="white"/>
<path d="M21.6666 5.07517C21.5621 5.25489 21.3306 5.31678 21.1477 5.21021C20.9666 5.10868 20.9048 4.88001 21.011 4.70021L23.6489 0.18802C23.7534 0.00914457 23.9867 -0.0544275 24.166 0.051302C24.3489 0.153588 24.4106 0.383271 24.3062 0.561222L21.6665 5.07509L21.6666 5.07517Z" fill="white"/>
<path d="M33.9996 25.7602C33.9996 27.0681 32.9271 28.1301 31.6002 28.1301C30.2734 28.1301 29.1982 27.069 29.1982 25.7602V15.3884C29.1982 14.0778 30.2726 13.0192 31.6002 13.0192C32.9262 13.0192 33.9996 14.0779 33.9996 15.3884V25.7602Z" fill="white"/>
<path d="M4.79967 25.7602C4.79967 27.0681 3.72365 28.1301 2.40115 28.1301C1.07347 28.1301 0 27.069 0 25.7602V15.3884C0 14.0778 1.07254 13.0192 2.40115 13.0192C3.72365 13.0192 4.79967 14.0779 4.79967 15.3884V25.7602Z" fill="white"/>
<path d="M15.2488 37.63C15.2488 38.938 14.1745 40 12.846 40C11.5218 40 10.4492 38.9388 10.4492 37.63V27.2582C10.4492 25.9511 11.5218 24.8865 12.846 24.8865C14.1736 24.8865 15.2488 25.9511 15.2488 27.2582V37.63Z" fill="white"/>
<path d="M23.5729 37.63C23.5729 38.938 22.4985 40 21.1709 40C19.8467 40 18.7715 38.9388 18.7715 37.63V27.2582C18.7715 25.9511 19.8458 24.8865 21.1709 24.8865C22.4977 24.8865 23.5729 25.9511 23.5729 27.2582V37.63Z" fill="white"/>
<path d="M17.0074 2.42041C11.1708 2.42041 6.36418 6.80789 5.72168 12.4474H28.2923C27.6516 6.80789 22.8475 2.42049 17.0074 2.42049V2.42041ZM11.9152 8.49939C11.3945 8.49939 10.974 8.0858 10.974 7.57327C10.974 7.06251 11.3945 6.64883 11.9152 6.64883C12.4306 6.64883 12.8511 7.06243 12.8511 7.57327C12.8511 8.0858 12.4306 8.49939 11.9152 8.49939ZM22.1196 8.49939C21.6007 8.49939 21.1802 8.0858 21.1802 7.57327C21.1802 7.06251 21.6007 6.64883 22.1196 6.64883C22.6402 6.64883 23.0573 7.06243 23.0573 7.57327C23.0573 8.0858 22.6403 8.49939 22.1196 8.49939Z" fill="white"/>
</svg>
