<svg width="14" height="14" viewBox="0 0 14 14" fill="none" xmlns="http://www.w3.org/2000/svg">
<path d="M8.23814 8.98334L10.9156 6.30584C11.0243 6.19655 11.0853 6.0487 11.0853 5.89459C11.0853 5.74048 11.0243 5.59263 10.9156 5.48334C10.8614 5.42867 10.7969 5.38527 10.7258 5.35565C10.6547 5.32604 10.5785 5.31079 10.5015 5.31079C10.4245 5.31079 10.3482 5.32604 10.2771 5.35565C10.206 5.38527 10.1415 5.42867 10.0873 5.48334L7.41564 8.16667C7.36141 8.22135 7.29689 8.26475 7.22581 8.29436C7.15472 8.32398 7.07848 8.33922 7.00147 8.33922C6.92446 8.33922 6.84822 8.32398 6.77713 8.29436C6.70605 8.26475 6.64153 8.22135 6.5873 8.16667L3.91564 5.48334C3.80657 5.3735 3.65833 5.31148 3.50353 5.31093C3.34874 5.31038 3.20006 5.37135 3.09022 5.48042C2.98038 5.58949 2.91836 5.73773 2.91781 5.89253C2.91726 6.04732 2.97823 6.196 3.0873 6.30584L5.7648 8.98334C6.09293 9.31106 6.53772 9.49513 7.00147 9.49513C7.46522 9.49513 7.91001 9.31106 8.23814 8.98334Z" fill="black"/>
</svg>
