<svg width="15" height="8" viewBox="0 0 15 8" fill="none" xmlns="http://www.w3.org/2000/svg">
<path d="M14.1304 2.66578L11.7652 0.187487C11.7084 0.128079 11.6408 0.080925 11.5663 0.0487461C11.4918 0.0165672 11.4119 0 11.3312 0C11.2506 0 11.1707 0.0165672 11.0962 0.0487461C11.0217 0.080925 10.9541 0.128079 10.8973 0.187487C10.7835 0.306244 10.7196 0.46689 10.7196 0.63434C10.7196 0.80179 10.7835 0.962437 10.8973 1.08119L13.0731 3.35666H0.611178C0.449084 3.35666 0.293628 3.42344 0.17901 3.5423C0.0643918 3.66117 0 3.82239 0 3.99049C0 4.1586 0.0643918 4.31981 0.17901 4.43868C0.293628 4.55755 0.449084 4.62433 0.611178 4.62433H13.1098L10.8973 6.91247C10.84 6.97139 10.7946 7.04149 10.7635 7.11873C10.7325 7.19597 10.7165 7.27882 10.7165 7.36249C10.7165 7.44616 10.7325 7.52901 10.7635 7.60625C10.7946 7.68349 10.84 7.75359 10.8973 7.81251C10.9541 7.87192 11.0217 7.91908 11.0962 7.95125C11.1707 7.98343 11.2506 8 11.3312 8C11.4119 8 11.4918 7.98343 11.5663 7.95125C11.6408 7.91908 11.7084 7.87192 11.7652 7.81251L14.1304 5.35324C14.4738 4.9967 14.6667 4.51341 14.6667 4.00951C14.6667 3.50561 14.4738 3.02231 14.1304 2.66578Z" fill="white"/>
</svg>
