<svg width="40" height="40" viewBox="0 0 40 40" fill="none" xmlns="http://www.w3.org/2000/svg">
<path fill-rule="evenodd" clip-rule="evenodd" d="M2.11466 28.9533C0.761331 26.26 0 23.2173 0 20C0 16.7827 0.761331 13.74 2.11466 11.0467C5.40133 4.49734 12.18 0 20 0C27.82 0 34.5987 4.49734 37.8853 11.0467C39.2387 13.74 40 16.7827 40 20C40 23.2173 39.2387 26.26 37.8853 28.9533C34.5987 35.5027 27.82 40 20 40C12.18 40 5.40133 35.5027 2.11466 28.9533ZM3.98133 13.3693C3.13467 15.412 2.66667 17.652 2.66667 20C2.66667 22.348 3.13467 24.588 3.98133 26.6307C6.15867 25.7867 8.72533 25.1093 11.5587 24.6533C11.412 23.1627 11.3333 21.604 11.3333 20C11.3333 18.396 11.412 16.8373 11.5587 15.3467C8.72533 14.8907 6.15867 14.2133 3.98133 13.3693ZM34.8013 10.9813C32.5947 7.36933 29.104 4.628 24.9667 3.39067C25.152 3.67867 25.332 3.984 25.5053 4.30667C26.6427 6.43067 27.552 9.332 28.0987 12.704C30.5893 12.3 32.8573 11.712 34.8013 10.9813ZM15.0333 3.39067C10.896 4.628 7.40534 7.36933 5.19867 10.9813C7.14267 11.7133 9.41067 12.3 11.9013 12.704C12.448 9.332 13.3573 6.43067 14.4947 4.30667C14.668 3.984 14.848 3.67867 15.0333 3.39067ZM36.0187 26.6307C36.8653 24.588 37.3333 22.348 37.3333 20C37.3333 17.652 36.8653 15.412 36.0187 13.3693C33.8413 14.2133 31.2747 14.8907 28.4413 15.3467C28.588 16.8373 28.6667 18.396 28.6667 20C28.6667 21.604 28.588 23.1627 28.4413 24.6533C31.2747 25.1093 33.8413 25.7867 36.0187 26.6307ZM5.19867 29.0187C7.40534 32.6307 10.896 35.372 15.0333 36.6093C14.848 36.3213 14.668 36.016 14.4947 35.6933C13.3573 33.5693 12.448 30.668 11.9013 27.296C9.41067 27.7 7.14267 28.288 5.19867 29.0187ZM24.9667 36.6093C29.104 35.372 32.5947 32.6307 34.8013 29.0187C32.8573 28.288 30.5893 27.7 28.0987 27.296C27.552 30.668 26.6427 33.5693 25.5053 35.6933C25.332 36.016 25.152 36.3213 24.9667 36.6093ZM20 2.66667C19.4867 2.66667 19.0067 2.91066 18.5453 3.30266C17.9267 3.828 17.3613 4.60267 16.8453 5.56667C15.8267 7.468 15.0267 10.0533 14.5387 13.0547C16.2853 13.2373 18.1147 13.3333 20 13.3333C21.8853 13.3333 23.7147 13.236 25.4613 13.0547C24.9733 10.0533 24.1733 7.468 23.1547 5.56667C22.6387 4.60267 22.0733 3.828 21.4547 3.30266C20.9933 2.91066 20.5133 2.66667 20 2.66667ZM20 37.3333C20.5133 37.3333 20.9933 37.0893 21.4547 36.6973C22.0733 36.172 22.6387 35.3973 23.1547 34.4333C24.1733 32.532 24.9733 29.9467 25.4613 26.9453C23.7147 26.764 21.8853 26.6667 20 26.6667C18.1147 26.6667 16.2853 26.764 14.5387 26.9453C15.0267 29.9467 15.8267 32.532 16.8453 34.4333C17.3613 35.3973 17.9267 36.172 18.5453 36.6973C19.0067 37.0893 19.4867 37.3333 20 37.3333ZM25.8 24.3027C25.9307 22.924 26 21.4827 26 20C26 18.5173 25.9307 17.076 25.8 15.6973C23.9453 15.8947 22.0013 16 20 16C17.9987 16 16.0547 15.8947 14.2 15.6973C14.0693 17.076 14 18.5173 14 20C14 21.4827 14.0693 22.924 14.2 24.3027C16.0547 24.1053 17.9987 24 20 24C22.0013 24 23.9453 24.1053 25.8 24.3027Z" fill="white"/>
</svg>
