<svg width="38" height="40" viewBox="0 0 38 40" fill="none" xmlns="http://www.w3.org/2000/svg">
<path d="M22.6666 3.33337H18.6666C18.114 3.33337 17.6666 3.78072 17.6666 4.33337C17.6666 4.88603 18.114 5.33337 18.6666 5.33337H22.6666C23.2193 5.33337 23.6666 4.88603 23.6666 4.33337C23.6666 3.78072 23.2193 3.33337 22.6666 3.33337Z" fill="white"/>
<path d="M27 0H11C8.79469 0 7 1.79469 7 4V36C7 38.2053 8.79469 40 11 40H27C29.2053 40 31 38.2053 31 36V4C31 1.79469 29.2053 0 27 0ZM29 36C29 37.1047 28.1047 38 27 38H11C9.89531 38 9 37.1047 9 36V4C9 2.89531 9.89531 2 11 2H27C28.1047 2 29 2.89531 29 4V36Z" fill="white"/>
<path d="M19 36.6666C20.1046 36.6666 21 35.7712 21 34.6666C21 33.5621 20.1046 32.6666 19 32.6666C17.8954 32.6666 17 33.5621 17 34.6666C17 35.7712 17.8954 36.6666 19 36.6666Z" fill="white"/>
<path d="M15.3334 5.33337C15.8857 5.33337 16.3334 4.88566 16.3334 4.33337C16.3334 3.78109 15.8857 3.33337 15.3334 3.33337C14.7811 3.33337 14.3334 3.78109 14.3334 4.33337C14.3334 4.88566 14.7811 5.33337 15.3334 5.33337Z" fill="white"/>
<path d="M2 8L2 19" stroke="white" stroke-width="3" stroke-linecap="round"/>
<path d="M36 22L36 33" stroke="white" stroke-width="3" stroke-linecap="round"/>
</svg>
