<svg width="54" height="26" viewBox="0 0 54 26" fill="none" xmlns="http://www.w3.org/2000/svg">
<path fill-rule="evenodd" clip-rule="evenodd" d="M32.26 23.56C34.612 24.992 37.504 26 41 26C48.176 26 54 20.176 54 13C54 5.824 48.176 0 41 0C29.044 0 24.216 11.884 24.216 11.884C24.216 11.884 21.044 20 13 20C9.136 20 6 16.864 6 13C6 9.136 9.136 6 13 6C15.248 6 17.108 6.644 18.616 7.56C20.032 8.424 21.876 7.976 22.74 6.56C23.6 5.148 23.152 3.3 21.74 2.44C19.388 1.008 16.496 0 13 0C5.824 0 0 5.824 0 13C0 20.176 5.824 26 13 26C24.956 26 29.784 14.116 29.784 14.116C29.784 14.116 32.956 6 41 6C44.864 6 48 9.136 48 13C48 16.864 44.864 20 41 20C38.752 20 36.892 19.356 35.384 18.44C33.968 17.576 32.124 18.024 31.26 19.44C30.4 20.852 30.848 22.7 32.26 23.56Z" fill="#E47725"/>
</svg>
