<svg width="32" height="32" viewBox="0 0 32 32" fill="none" xmlns="http://www.w3.org/2000/svg">
<g clip-path="url(#clip0_1_7186)">
<path d="M32 29.3332C32 30.8066 30.8067 31.9999 29.3333 31.9999C28.3493 31.9999 27.4987 31.4599 27.036 30.6666H25.3333C23.128 30.6666 21.3333 28.8719 21.3333 26.6666V19.9999C21.3333 19.2626 21.9307 18.6666 22.6667 18.6666C23.4027 18.6666 24 19.2626 24 19.9999V26.6666C24 27.4026 24.5987 27.9999 25.3333 27.9999H27.036C27.4973 27.2066 28.348 26.6666 29.3333 26.6666C30.8067 26.6666 32 27.8599 32 29.3332ZM17.3333 27.0359V19.9999C17.3333 19.2626 16.736 18.6666 16 18.6666C15.264 18.6666 14.6667 19.2626 14.6667 19.9999V27.0359C13.8733 27.4972 13.3333 28.3479 13.3333 29.3332C13.3333 30.8066 14.5267 31.9999 16 31.9999C17.4733 31.9999 18.6667 30.8066 18.6667 29.3332C18.6667 28.3492 18.1267 27.4986 17.3333 27.0359ZM9.33333 18.6666C8.59733 18.6666 8 19.2626 8 19.9999V26.6666C8 27.4026 7.40133 27.9999 6.66667 27.9999H4.964C4.50267 27.2066 3.652 26.6666 2.66667 26.6666C1.19333 26.6666 0 27.8599 0 29.3332C0 30.8066 1.19333 31.9999 2.66667 31.9999C3.65067 31.9999 4.50133 31.4599 4.964 30.6666H6.66667C8.872 30.6666 10.6667 28.8719 10.6667 26.6666V19.9999C10.6667 19.2626 10.0693 18.6666 9.33333 18.6666ZM26.6667 19.9999V22.4572C28.736 21.0586 30.224 18.8359 30.5773 16.2879C31.256 11.3959 27.9973 7.12789 23.5147 6.19189C22.9773 6.07989 22.5067 5.72789 22.2547 5.23989C20.5667 1.96789 17.0707 -0.217445 13.084 0.0172218C8.92133 0.261222 5.328 3.31455 4.29333 7.35322C3.95467 8.67322 3.92667 9.94655 4.11733 11.1466C4.22667 11.8359 3.95867 12.5106 3.43867 12.9759C1.93067 14.3266 1.06933 16.3786 1.40533 18.6332C1.73467 20.8506 3.28667 22.7292 5.33333 23.5452V19.9999C5.33333 17.7946 7.128 15.9999 9.33333 15.9999C10.7253 15.9999 11.9493 16.7159 12.6667 17.7972C13.384 16.7159 14.608 15.9999 16 15.9999C17.392 15.9999 18.616 16.7159 19.3333 17.7972C20.0507 16.7159 21.2747 15.9999 22.6667 15.9999C24.872 15.9999 26.6667 17.7946 26.6667 19.9999Z" fill="#777777"/>
</g>
<defs>
<clipPath id="clip0_1_7186">
<rect width="32" height="32" fill="white"/>
</clipPath>
</defs>
</svg>
