<svg width="32" height="32" viewBox="0 0 32 32" fill="none" xmlns="http://www.w3.org/2000/svg">
<g clip-path="url(#clip0_1_7188)">
<path d="M23.9387 7.93867C20.348 7.93867 17.6373 10.3893 16 12.424C14.3627 10.3893 11.652 7.93867 8.06133 7.93867C5.92334 7.93867 3.8729 8.78798 2.36111 10.2998C0.849317 11.8116 0 13.862 0 16C0 18.138 0.849317 20.1884 2.36111 21.7002C3.8729 23.212 5.92334 24.0613 8.06133 24.0613C11.652 24.0613 14.3627 21.6107 16 19.576C17.6373 21.6107 20.348 24.0613 23.9387 24.0613C26.0767 24.0613 28.1271 23.212 29.6389 21.7002C31.1507 20.1884 32 18.138 32 16C32 13.862 31.1507 11.8116 29.6389 10.2998C28.1271 8.78798 26.0767 7.93867 23.9387 7.93867ZM8.06133 20.0613C6.9842 20.0613 5.95118 19.6334 5.18954 18.8718C4.42789 18.1102 4 17.0771 4 16C4 14.9229 4.42789 13.8899 5.18954 13.1282C5.95118 12.3666 6.9842 11.9387 8.06133 11.9387C10.4827 11.9387 12.604 14.3667 13.6787 16C12.604 17.6333 10.4827 20.0613 8.06133 20.0613ZM23.9387 20.0613C21.5173 20.0613 19.396 17.6333 18.3213 16C19.396 14.3667 21.5213 11.9387 23.9387 11.9387C25.0158 11.9387 26.0488 12.3666 26.8105 13.1282C27.5721 13.8899 28 14.9229 28 16C28 17.0771 27.5721 18.1102 26.8105 18.8718C26.0488 19.6334 25.0158 20.0613 23.9387 20.0613Z" fill="#777777"/>
</g>
<defs>
<clipPath id="clip0_1_7188">
<rect width="32" height="32" fill="white"/>
</clipPath>
</defs>
</svg>
