<svg width="32" height="32" viewBox="0 0 32 32" fill="none" xmlns="http://www.w3.org/2000/svg">
<g clip-path="url(#clip0_1_7184)">
<path d="M28.4 18.5067L27.8 18.16C27.9333 17.44 28 16.7067 28 15.9867C28 15.2667 27.9333 14.5467 27.8 13.8133L28.4 13.4667C30.3067 12.3733 30.9733 9.92 29.88 8C29.3467 7.08 28.48 6.41333 27.4533 6.13333C26.4267 5.85333 25.3467 6 24.4133 6.53333L23.8133 6.88C22.6933 5.92 21.4 5.17333 20 4.68V3.98666C20 1.78666 18.2 -0.0133362 16 -0.0133362C13.8 -0.0133362 12 1.78666 12 3.98666V4.68C10.6 5.17333 9.30666 5.92 8.18666 6.88L7.58666 6.53333C6.66666 6 5.58666 5.86666 4.54666 6.13333C3.52 6.41333 2.65333 7.08 2.12 8C1.02666 9.90666 1.68 12.36 3.58666 13.4667L4.18666 13.8133C4.05333 14.5333 3.98666 15.2667 3.98666 15.9867C3.98666 16.7067 4.05333 17.4267 4.18666 18.16L3.58666 18.5067C1.68 19.6 1.01333 22.0533 2.10666 23.9733C2.64 24.8933 3.50666 25.56 4.53333 25.84C5.56 26.12 6.64 25.9733 7.57333 25.44L8.17333 25.0933C9.29333 26.0533 10.5867 26.8 11.9867 27.2933V27.9867C11.9867 30.1867 13.7867 31.9867 15.9867 31.9867C18.1867 31.9867 19.9867 30.1867 19.9867 27.9867V27.2933C21.3867 26.8 22.68 26.0533 23.8 25.0933L24.4 25.44C25.32 25.9733 26.4 26.12 27.44 25.84C28.4667 25.56 29.3333 24.8933 29.8667 23.9733C30.96 22.0667 30.3067 19.6133 28.4 18.5067ZM12.28 17.6533C12.8 18.1733 12.8 19.0133 12.28 19.5333C12.0133 19.8 11.68 19.92 11.3333 19.92C10.9867 19.92 10.6533 19.7867 10.3867 19.5333L8.77333 17.92C7.73333 16.88 7.73333 15.2 8.77333 14.1733L10.3867 12.56C10.9067 12.04 11.7467 12.04 12.2667 12.56C12.7867 13.08 12.7867 13.92 12.2667 14.44L10.6533 16.0533L12.2667 17.64L12.28 17.6533ZM18.3733 10.92L16.24 21.5867C16.12 22.2267 15.56 22.6533 14.9333 22.6533C14.8533 22.6533 14.76 22.6533 14.6667 22.6267C13.9467 22.48 13.48 21.7867 13.6267 21.0533L15.76 10.3867C15.9067 9.66666 16.6 9.2 17.3333 9.34666C18.0533 9.49333 18.52 10.1867 18.3733 10.92ZM23.2267 17.92L21.6133 19.5333C21.3467 19.8 21.0133 19.92 20.6667 19.92C20.32 19.92 19.9867 19.7867 19.72 19.5333C19.2 19.0133 19.2 18.1733 19.72 17.6533L21.3333 16.04L19.72 14.44C19.2 13.92 19.2 13.08 19.72 12.56C20.24 12.04 21.08 12.04 21.6 12.56L23.2133 14.1733C24.2533 15.2133 24.2533 16.8933 23.2133 17.92H23.2267Z" fill="#777777"/>
</g>
<defs>
<clipPath id="clip0_1_7184">
<rect width="32" height="32" fill="white"/>
</clipPath>
</defs>
</svg>
