<svg width="44" height="40" viewBox="0 0 44 40" fill="none" xmlns="http://www.w3.org/2000/svg">
<path d="M43.6364 32.7273V5.45455C43.6364 2.44727 41.1891 0 38.1818 0H5.45455C2.44727 0 0 2.44727 0 5.45455V32.7273H20V36.3636H10.9091V40H32.7273V36.3636H23.6364V32.7273H43.6364ZM24.92 10.38L27.4909 7.80909L33.4873 13.8073C34.8964 15.2164 34.8964 17.5109 33.4873 18.92L27.4891 24.9182L24.9182 22.3473L30.9145 16.3491L24.9182 10.38H24.92ZM18.7182 22.3473L16.1473 24.9182L10.1509 18.92C8.74182 17.5109 8.74182 15.2164 10.1509 13.8073L16.1491 7.80909L18.72 10.38L12.7236 16.3782L18.7182 22.3473Z" fill="white"/>
</svg>
