<svg width="41" height="40" viewBox="0 0 41 40" fill="none" xmlns="http://www.w3.org/2000/svg">
<path d="M37.8315 18.0833L20.1899 28.6699L2.54825 18.0833C2.1656 17.8537 1.70742 17.7855 1.27449 17.8937C0.841571 18.002 0.469375 18.2778 0.239784 18.6604C0.0101919 19.0431 -0.0579881 19.5012 0.0502425 19.9342C0.158473 20.3671 0.434248 20.7393 0.816901 20.9689L19.325 32.0738C19.5867 32.231 19.8863 32.314 20.1916 32.314C20.4969 32.314 20.7964 32.231 21.0581 32.0738L39.5662 20.9689C39.9489 20.7393 40.2247 20.3671 40.3329 19.9342C40.4411 19.5012 40.3729 19.0431 40.1433 18.6604C39.9137 18.2778 39.5416 18.002 39.1086 17.8937C38.6757 17.7855 38.2175 17.8537 37.8349 18.0833H37.8315Z" fill="white"/>
<path d="M37.8315 25.7692L20.1899 36.3542L2.54825 25.7692C2.35878 25.6555 2.14877 25.5803 1.93022 25.5477C1.71167 25.5152 1.48885 25.5261 1.27449 25.5797C1.06013 25.6333 0.85842 25.7285 0.680885 25.8601C0.503349 25.9916 0.353461 26.1568 0.239779 26.3463C0.126096 26.5358 0.0508462 26.7458 0.0183247 26.9643C-0.0141969 27.1829 -0.00335287 27.4057 0.0502374 27.6201C0.158468 28.053 0.434243 28.4252 0.816896 28.6548L19.325 39.7597C19.5867 39.9169 19.8863 40 20.1916 40C20.4968 40 20.7964 39.9169 21.0581 39.7597L39.5662 28.6548C39.9489 28.4252 40.2246 28.053 40.3329 27.6201C40.4411 27.1872 40.3729 26.729 40.1433 26.3463C39.9137 25.9637 39.5415 25.6879 39.1086 25.5797C38.6757 25.4714 38.2175 25.5396 37.8349 25.7692H37.8315Z" fill="white"/>
<path d="M0.815508 13.6784L17.6142 23.7586C18.392 24.2265 19.2825 24.4737 20.1902 24.4737C21.0978 24.4737 21.9884 24.2265 22.7662 23.7586L39.5648 13.6784C39.8136 13.5288 40.0194 13.3174 40.1623 13.0647C40.3052 12.8121 40.3803 12.5267 40.3803 12.2364C40.3803 11.9462 40.3052 11.6608 40.1623 11.4081C40.0194 11.1555 39.8136 10.9441 39.5648 10.7945L22.7662 0.714274C21.9882 0.246908 21.0977 0 20.1902 0C19.2826 0 18.3921 0.246908 17.6142 0.714274L0.815508 10.7945C0.566738 10.9441 0.360899 11.1555 0.218 11.4081C0.0750998 11.6608 0 11.9462 0 12.2364C0 12.5267 0.0750998 12.8121 0.218 13.0647C0.360899 13.3174 0.566738 13.5288 0.815508 13.6784Z" fill="white"/>
</svg>
