<svg width="40" height="40" viewBox="0 0 40 40" fill="none" xmlns="http://www.w3.org/2000/svg">
<path d="M35 26.6661V19.9992C34.9994 17.76 34.4967 15.5494 33.5286 13.5302C32.5606 11.5111 31.1521 9.73476 29.4067 8.3321H33.795C34.1644 8.96148 34.7309 9.45155 35.4068 9.72646C36.0828 10.0014 36.8306 10.0458 37.5343 9.8528C38.2381 9.65983 38.8586 9.24025 39.2999 8.65901C39.7411 8.07777 39.9785 7.36728 39.9752 6.63752C39.9719 5.90777 39.7282 5.19944 39.2817 4.62219C38.8352 4.04495 38.211 3.63097 37.5055 3.44434C36.8 3.25772 36.0527 3.30885 35.3792 3.58983C34.7058 3.8708 34.1437 4.36596 33.78 4.99864H26.43C26.0662 3.56927 25.2366 2.30187 24.0721 1.39665C22.9077 0.491428 21.4749 0 20 0C18.5251 0 17.0923 0.491428 15.9279 1.39665C14.7634 2.30187 13.9338 3.56927 13.57 4.99864H6.205C5.83564 4.36926 5.26913 3.87918 4.59315 3.60428C3.91717 3.32937 3.16943 3.28497 2.46567 3.47793C1.76191 3.6709 1.14138 4.09048 0.700133 4.67172C0.258888 5.25297 0.0215376 5.96346 0.0248213 6.69321C0.0281051 7.42297 0.27184 8.13129 0.718298 8.70854C1.16476 9.28579 1.78904 9.69977 2.49451 9.88639C3.19998 10.073 3.94729 10.0219 4.62076 9.74091C5.29424 9.45993 5.85632 8.96478 6.22 8.3321H10.5933C8.84793 9.73476 7.43936 11.5111 6.47136 13.5302C5.50335 15.5494 5.00055 17.76 5 19.9992V26.6661C3.67392 26.6661 2.40215 27.193 1.46447 28.1307C0.526784 29.0684 0 30.3402 0 31.6663L0 34.9998C0 36.3259 0.526784 37.5978 1.46447 38.5355C2.40215 39.4732 3.67392 40 5 40H8.33333C9.65942 40 10.9312 39.4732 11.8689 38.5355C12.8065 37.5978 13.3333 36.3259 13.3333 34.9998V31.6663C13.3333 30.3402 12.8065 29.0684 11.8689 28.1307C10.9312 27.193 9.65942 26.6661 8.33333 26.6661V19.9992C8.33605 17.947 8.88001 15.9318 9.91034 14.1569C10.9407 12.3821 12.4209 10.9105 14.2017 9.89049C14.7699 10.9322 15.6082 11.8015 16.6285 12.4072C17.6488 13.0129 18.8135 13.3325 20 13.3325C21.1865 13.3325 22.3512 13.0129 23.3715 12.4072C24.3918 11.8015 25.2301 10.9322 25.7983 9.89049C27.5791 10.9105 29.0593 12.3821 30.0897 14.1569C31.12 15.9318 31.664 17.947 31.6667 19.9992V26.6661C30.3406 26.6661 29.0688 27.193 28.1311 28.1307C27.1935 29.0684 26.6667 30.3402 26.6667 31.6663V34.9998C26.6667 36.3259 27.1935 37.5978 28.1311 38.5355C29.0688 39.4732 30.3406 40 31.6667 40H35C36.3261 40 37.5979 39.4732 38.5355 38.5355C39.4732 37.5978 40 36.3259 40 34.9998V31.6663C40 30.3402 39.4732 29.0684 38.5355 28.1307C37.5979 27.193 36.3261 26.6661 35 26.6661Z" fill="#E47725"/>
</svg>
