<svg width="37" height="40" viewBox="0 0 37 40" fill="none" xmlns="http://www.w3.org/2000/svg">
<path d="M24.9999 21.6667C24.2237 22.7017 23.2172 23.5417 22.06 24.1203C20.9029 24.6989 19.627 25.0001 18.3333 25.0001C17.0396 25.0001 15.7636 24.6989 14.6065 24.1203C13.4494 23.5417 12.4429 22.7017 11.6666 21.6667C11.0134 22.5474 10.1913 23.2891 9.24836 23.8487C8.30544 24.4083 7.26054 24.7745 6.17459 24.9261C5.08865 25.0777 3.9834 25.0115 2.92329 24.7315C1.86318 24.4514 0.869434 23.9632 0 23.2951V31.6667C0.00264642 33.876 0.881467 35.9941 2.44369 37.5563C4.00592 39.1186 6.12399 39.9974 8.33331 40H28.3333C30.5426 39.9974 32.6606 39.1186 34.2229 37.5563C35.7851 35.9941 36.6639 33.876 36.6666 31.6667V23.2901C35.7974 23.9584 34.8039 24.447 33.744 24.7275C32.6841 25.0079 31.579 25.0745 30.493 24.9234C29.4071 24.7723 28.3621 24.4065 27.419 23.8474C26.4759 23.2883 25.6536 22.547 24.9999 21.6667Z" fill="white"/>
<path d="M34.4999 5.21844C34.1773 3.73359 33.3541 2.40477 32.1683 1.45471C30.9824 0.504647 29.506 -0.00891194 27.9866 0.000117054H26.6666V5.0001C26.6666 5.44213 26.491 5.86605 26.1784 6.17861C25.8659 6.49117 25.442 6.66676 24.9999 6.66676C24.5579 6.66676 24.134 6.49117 23.8214 6.17861C23.5089 5.86605 23.3333 5.44213 23.3333 5.0001V0.000117054H13.3333V5.0001C13.3333 5.44213 13.1577 5.86605 12.8451 6.17861C12.5326 6.49117 12.1087 6.66676 11.6666 6.66676C11.2246 6.66676 10.8007 6.49117 10.4881 6.17861C10.1756 5.86605 9.99997 5.44213 9.99997 5.0001V0.000117054H8.67997C7.16029 -0.0088304 5.68373 0.504965 4.49786 1.45536C3.312 2.40575 2.48893 3.73495 2.16666 5.2201L0.0366665 14.8334L0 16.7001C0.00218869 17.3567 0.133684 18.0064 0.386979 18.6122C0.640274 19.218 1.01041 19.768 1.47625 20.2307C2.41705 21.1653 3.69057 21.6878 5.01665 21.6834C5.67326 21.6812 6.32301 21.5497 6.92879 21.2964C7.53458 21.0431 8.08455 20.673 8.54729 20.2071C9.01004 19.7413 9.3765 19.1889 9.62575 18.5814C9.875 17.974 10.0022 17.3233 9.99997 16.6667C9.99997 16.2247 10.1756 15.8008 10.4881 15.4882C10.8007 15.1757 11.2246 15.0001 11.6666 15.0001C12.1087 15.0001 12.5326 15.1757 12.8451 15.4882C13.1577 15.8008 13.3333 16.2247 13.3333 16.6667C13.3333 17.9928 13.8601 19.2646 14.7978 20.2023C15.7354 21.1399 17.0072 21.6667 18.3333 21.6667C19.6594 21.6667 20.9311 21.1399 21.8688 20.2023C22.8065 19.2646 23.3333 17.9928 23.3333 16.6667C23.3333 16.2247 23.5089 15.8008 23.8214 15.4882C24.134 15.1757 24.5579 15.0001 24.9999 15.0001C25.442 15.0001 25.8659 15.1757 26.1784 15.4882C26.491 15.8008 26.6666 16.2247 26.6666 16.6667C26.6666 17.9928 27.1934 19.2646 28.131 20.2023C29.0687 21.1399 30.3405 21.6667 31.6666 21.6667C32.9927 21.6667 34.2644 21.1399 35.2021 20.2023C36.1398 19.2646 36.6666 17.9928 36.6666 16.6667V15.1784L34.4999 5.21844Z" fill="white"/>
</svg>
