<svg width="40" height="40" viewBox="0 0 40 40" fill="none" xmlns="http://www.w3.org/2000/svg">
<path d="M31.6667 0H8.33333C3.73833 0 0 3.73833 0 8.33333V31.6667C0 36.2617 3.73833 40 8.33333 40H31.6667C36.2617 40 40 36.2617 40 31.6667V8.33333C40 3.73833 36.2617 0 31.6667 0ZM12.155 21.175L16.46 25.48C17.1117 26.1317 17.1117 27.185 16.46 27.8367C16.135 28.1617 15.7083 28.325 15.2817 28.325C14.855 28.325 14.4283 28.1617 14.1033 27.8367L9.79833 23.5317C8.85333 22.5883 8.33333 21.3317 8.33333 19.995C8.33333 18.6583 8.85333 17.4033 9.79833 16.4583L14.1033 12.1533C14.755 11.5017 15.8083 11.5017 16.46 12.1533C17.1117 12.805 17.1117 13.8583 16.46 14.51L12.155 18.815C11.84 19.13 11.6667 19.5483 11.6667 19.9933C11.6667 20.4383 11.84 20.86 12.155 21.175ZM30.2017 23.54L25.8967 27.845C25.5717 28.17 25.145 28.3333 24.7183 28.3333C24.2917 28.3333 23.865 28.17 23.54 27.845C22.8883 27.1933 22.8883 26.14 23.54 25.4883L27.845 21.1833C28.1583 20.8683 28.3333 20.45 28.3333 20.0033C28.3333 19.5567 28.16 19.14 27.845 18.825L23.54 14.5183C22.8883 13.8667 22.8883 12.8117 23.54 12.1617C24.1917 11.51 25.245 11.51 25.8967 12.1617L30.2017 16.4667C31.145 17.41 31.6667 18.6667 31.6667 20.0017C31.6667 21.3367 31.1467 22.595 30.2017 23.54Z" fill="white"/>
</svg>
